<svg xmlns="http://www.w3.org/2000/svg" xmlns:xlink="http://www.w3.org/1999/xlink" width="102.188" height="305.383" viewBox="0 0 102.188 305.383">
  <defs>
    <clipPath id="clip-path">
      <rect id="Rectangle_9737" data-name="Rectangle 9737" width="37.106" height="37.165" fill="#1544ce" stroke="#fff" stroke-width="0.5"/>
    </clipPath>
    <clipPath id="clip-path-2">
      <rect id="Rectangle_9738" data-name="Rectangle 9738" width="41.587" height="6.33" transform="translate(0 0)" fill="none"/>
    </clipPath>
    <clipPath id="clip-path-3">
      <rect id="Rectangle_9879" data-name="Rectangle 9879" width="39.158" height="44.219" fill="none"/>
    </clipPath>
  </defs>
  <g id="Group_13282" data-name="Group 13282" transform="translate(20258.004 24116.9)">
    <path id="Path_22328" data-name="Path 22328" d="M1.427-.462a4.2,4.2,0,0,1-.485-.687,3.309,3.309,0,0,1-.324-.82,4.053,4.053,0,0,1-.114-1,3.937,3.937,0,0,1,.117-1,3.25,3.25,0,0,1,.327-.809,3.788,3.788,0,0,1,.48-.659H2a4.457,4.457,0,0,0-.547.721,3.139,3.139,0,0,0-.342.8,3.573,3.573,0,0,0-.117.942,3.71,3.71,0,0,0,.114.947,3.184,3.184,0,0,0,.34.815A4.677,4.677,0,0,0,2-.462ZM2.985-2.724V-3.17H3.83a.852.852,0,0,0,.446-.106.691.691,0,0,0,.267-.288.892.892,0,0,0,.091-.4.9.9,0,0,0-.091-.41.675.675,0,0,0-.267-.285.869.869,0,0,0-.446-.1H2.985v-.446h.752a1.828,1.828,0,0,1,.781.148,1.061,1.061,0,0,1,.475.418,1.223,1.223,0,0,1,.161.638v.083a1.227,1.227,0,0,1-.161.636,1.056,1.056,0,0,1-.475.42,1.828,1.828,0,0,1-.781.148Zm-.4,1.318V-5.214h.508v3.808ZM7-1.313a1.533,1.533,0,0,1-.638-.125A1.422,1.422,0,0,1,5.9-1.767a1.4,1.4,0,0,1-.285-.459,1.458,1.458,0,0,1-.1-.519v-.093a1.444,1.444,0,0,1,.1-.521,1.408,1.408,0,0,1,.291-.462,1.419,1.419,0,0,1,.467-.327A1.534,1.534,0,0,1,7-4.27a1.534,1.534,0,0,1,.628.122,1.419,1.419,0,0,1,.467.327,1.408,1.408,0,0,1,.291.462,1.444,1.444,0,0,1,.1.521v.093a1.458,1.458,0,0,1-.1.519,1.4,1.4,0,0,1-.285.459,1.422,1.422,0,0,1-.464.329A1.533,1.533,0,0,1,7-1.313Zm0-.446A.985.985,0,0,0,7.533-1.9a.907.907,0,0,0,.337-.371,1.155,1.155,0,0,0,.117-.524,1.146,1.146,0,0,0-.119-.529.907.907,0,0,0-.34-.368A.99.99,0,0,0,7-3.824a.993.993,0,0,0-.524.135.9.9,0,0,0-.342.368,1.146,1.146,0,0,0-.119.529,1.155,1.155,0,0,0,.117.524.907.907,0,0,0,.337.371A.985.985,0,0,0,7-1.759Zm3.088.436a1.34,1.34,0,0,1-.843-.233.794.794,0,0,1-.309-.638H9.4a.457.457,0,0,0,.163.3.758.758,0,0,0,.521.143.836.836,0,0,0,.508-.132.394.394,0,0,0,.176-.324.314.314,0,0,0-.13-.267.88.88,0,0,0-.42-.127l-.3-.031a1.232,1.232,0,0,1-.643-.236.655.655,0,0,1-.249-.547.762.762,0,0,1,.135-.454.856.856,0,0,1,.374-.291,1.4,1.4,0,0,1,.55-.1,1.274,1.274,0,0,1,.757.208.734.734,0,0,1,.3.617H10.68a.365.365,0,0,0-.153-.283.7.7,0,0,0-.438-.117.7.7,0,0,0-.441.119.369.369,0,0,0-.15.3.315.315,0,0,0,.106.249.633.633,0,0,0,.35.119l.3.031a1.435,1.435,0,0,1,.716.246.66.66,0,0,1,.27.563.751.751,0,0,1-.148.459.969.969,0,0,1-.407.311A1.5,1.5,0,0,1,10.089-1.323Zm2.9-.052a1.474,1.474,0,0,1-.537-.088.67.67,0,0,1-.348-.3,1.186,1.186,0,0,1-.122-.584V-5.017h.477v2.729a.467.467,0,0,0,.122.345.467.467,0,0,0,.345.122h.488v.446ZM11.506-3.8v-.374h1.909V-3.8Zm2.325,1.167v-.425h1.93v.425Zm2.7,1.23V-5.193h.5v2.262H16.9a2.112,2.112,0,0,1,.106-.708.933.933,0,0,1,.329-.459.952.952,0,0,1,.571-.161h.021a.892.892,0,0,1,.752.329,1.514,1.514,0,0,1,.254.942v1.582h-.5V-3.092a.7.7,0,0,0-.189-.524.668.668,0,0,0-.49-.187.683.683,0,0,0-.532.22.828.828,0,0,0-.2.578v1.6Zm4.945,0v-.83h-.083V-3.2a.578.578,0,0,0-.148-.431.593.593,0,0,0-.433-.145q-.161,0-.332.005l-.327.01q-.156.005-.27.016v-.436q.114-.01.241-.018t.262-.01l.259,0a2.01,2.01,0,0,1,.7.1.739.739,0,0,1,.4.329,1.251,1.251,0,0,1,.13.617v1.754Zm-.908.073a1.25,1.25,0,0,1-.537-.106.786.786,0,0,1-.348-.309.928.928,0,0,1-.122-.488.865.865,0,0,1,.132-.493.81.81,0,0,1,.386-.3,1.656,1.656,0,0,1,.612-.1h.752v.374h-.773a.666.666,0,0,0-.462.145.481.481,0,0,0-.161.374.465.465,0,0,0,.161.368.682.682,0,0,0,.462.14.893.893,0,0,0,.337-.065.591.591,0,0,0,.267-.218.787.787,0,0,0,.117-.423l.135.2a1.177,1.177,0,0,1-.143.5.767.767,0,0,1-.322.3A1.087,1.087,0,0,1,20.567-1.334Zm2.164-.073v-2.77h.394v1.141H23.1a1.261,1.261,0,0,1,.267-.89,1.052,1.052,0,0,1,.8-.283h.093v.446H24.09a.869.869,0,0,0-.638.22.854.854,0,0,0-.223.636v1.5Zm2.761,0-.944-2.77h.519l.923,2.77Zm.125,0V-1.8h.6v.394Zm.239,0,.8-2.77h.488l-.82,2.77Zm3.02.093a1.462,1.462,0,0,1-.628-.125,1.2,1.2,0,0,1-.431-.329,1.387,1.387,0,0,1-.246-.459,1.71,1.71,0,0,1-.08-.519v-.093a1.727,1.727,0,0,1,.08-.524,1.387,1.387,0,0,1,.246-.459,1.193,1.193,0,0,1,.423-.327,1.4,1.4,0,0,1,.6-.122,1.32,1.32,0,0,1,.744.195,1.2,1.2,0,0,1,.436.5,1.528,1.528,0,0,1,.143.654V-2.7H27.708v-.374h2.1l-.114.2A1.278,1.278,0,0,0,29.6-3.38a.731.731,0,0,0-.28-.335.862.862,0,0,0-.472-.119.841.841,0,0,0-.49.135.812.812,0,0,0-.291.368,1.411,1.411,0,0,0-.1.54,1.4,1.4,0,0,0,.1.532.808.808,0,0,0,.3.374.9.9,0,0,0,.514.137.9.9,0,0,0,.532-.145.564.564,0,0,0,.246-.337h.467a1.1,1.1,0,0,1-.228.493,1.1,1.1,0,0,1-.431.316A1.5,1.5,0,0,1,28.875-1.313Zm2.854-.01a1.34,1.34,0,0,1-.843-.233.794.794,0,0,1-.309-.638h.467a.457.457,0,0,0,.163.3.758.758,0,0,0,.521.143.836.836,0,0,0,.508-.132.394.394,0,0,0,.176-.324.314.314,0,0,0-.13-.267.88.88,0,0,0-.42-.127l-.3-.031a1.232,1.232,0,0,1-.643-.236.655.655,0,0,1-.249-.547.762.762,0,0,1,.135-.454.856.856,0,0,1,.374-.291,1.4,1.4,0,0,1,.55-.1,1.274,1.274,0,0,1,.757.208.734.734,0,0,1,.3.617h-.467a.365.365,0,0,0-.153-.283.7.7,0,0,0-.438-.117.7.7,0,0,0-.441.119.369.369,0,0,0-.15.3.315.315,0,0,0,.106.249.633.633,0,0,0,.35.119l.3.031a1.435,1.435,0,0,1,.716.246.66.66,0,0,1,.27.563.751.751,0,0,1-.148.459.969.969,0,0,1-.407.311A1.5,1.5,0,0,1,31.73-1.323Zm2.9-.052a1.474,1.474,0,0,1-.537-.088.67.67,0,0,1-.348-.3,1.186,1.186,0,0,1-.122-.584V-5.017H34.1v2.729a.467.467,0,0,0,.122.345.467.467,0,0,0,.345.122h.488v.446ZM33.147-3.8v-.374h1.909V-3.8Zm3.7,2.4v-2.77h.394v1.188h-.062a1.96,1.96,0,0,1,.106-.687.9.9,0,0,1,.319-.433.912.912,0,0,1,.54-.15h.021a.924.924,0,0,1,.542.15.88.88,0,0,1,.319.433,2,2,0,0,1,.1.687H38.98a1.917,1.917,0,0,1,.109-.687.91.91,0,0,1,.324-.433.924.924,0,0,1,.542-.15h.021a.936.936,0,0,1,.545.15.888.888,0,0,1,.324.433,1.959,1.959,0,0,1,.106.687v1.582h-.5V-3.1a.752.752,0,0,0-.166-.521.59.59,0,0,0-.462-.184.652.652,0,0,0-.493.195.751.751,0,0,0-.187.542v1.66h-.5V-3.1a.752.752,0,0,0-.166-.521A.59.59,0,0,0,38.02-3.8a.652.652,0,0,0-.493.195.751.751,0,0,0-.187.542v1.66Zm6.7,0v-.83h-.083V-3.2a.578.578,0,0,0-.148-.431.593.593,0,0,0-.433-.145q-.161,0-.332.005l-.327.01q-.156.005-.27.016v-.436q.114-.01.241-.018t.262-.01l.259,0a2.01,2.01,0,0,1,.7.1.739.739,0,0,1,.4.329,1.251,1.251,0,0,1,.13.617v1.754Zm-.908.073A1.25,1.25,0,0,1,42.1-1.44a.786.786,0,0,1-.348-.309.928.928,0,0,1-.122-.488.865.865,0,0,1,.132-.493.81.81,0,0,1,.386-.3,1.656,1.656,0,0,1,.612-.1h.752v.374h-.773a.666.666,0,0,0-.462.145.481.481,0,0,0-.161.374.465.465,0,0,0,.161.368.682.682,0,0,0,.462.14.893.893,0,0,0,.337-.065.591.591,0,0,0,.267-.218.787.787,0,0,0,.117-.423l.135.2a1.177,1.177,0,0,1-.143.5.767.767,0,0,1-.322.3A1.087,1.087,0,0,1,42.632-1.334Zm2.215-.073v-2.77h.394v1.141h-.021a1.261,1.261,0,0,1,.267-.89,1.052,1.052,0,0,1,.8-.283h.093v.446h-.176a.869.869,0,0,0-.638.22.854.854,0,0,0-.223.636v1.5Zm4.036,0L47.841-2.7h-.457l1.271-1.479h.524L48.028-2.843l.036-.265,1.4,1.7Zm-1.909,0V-5.193h.5v3.787Zm4.088.093a1.462,1.462,0,0,1-.628-.125A1.2,1.2,0,0,1,50-1.767a1.387,1.387,0,0,1-.246-.459,1.71,1.71,0,0,1-.08-.519v-.093a1.727,1.727,0,0,1,.08-.524A1.387,1.387,0,0,1,50-3.821a1.193,1.193,0,0,1,.423-.327,1.4,1.4,0,0,1,.6-.122,1.32,1.32,0,0,1,.744.195,1.2,1.2,0,0,1,.436.5,1.528,1.528,0,0,1,.143.654V-2.7H49.9v-.374h2.1l-.114.2a1.278,1.278,0,0,0-.093-.511.731.731,0,0,0-.28-.335.862.862,0,0,0-.472-.119.841.841,0,0,0-.49.135.812.812,0,0,0-.291.368,1.411,1.411,0,0,0-.1.54,1.4,1.4,0,0,0,.1.532.808.808,0,0,0,.3.374.9.9,0,0,0,.514.137.9.9,0,0,0,.532-.145.564.564,0,0,0,.246-.337h.467a1.1,1.1,0,0,1-.228.493,1.1,1.1,0,0,1-.431.316A1.5,1.5,0,0,1,51.062-1.313Zm3.076-.062a1.474,1.474,0,0,1-.537-.088.67.67,0,0,1-.348-.3,1.186,1.186,0,0,1-.122-.584V-5.017h.477v2.729a.467.467,0,0,0,.122.345.467.467,0,0,0,.345.122h.488v.446ZM52.655-3.8v-.374h1.909V-3.8Zm3.829,2.4V-5.193h.5v3.787ZM56.1-4.8v-.394h.882V-4.8Zm1.971,3.393v-2.77h.5v2.77Zm-.425-2.376v-.394h.923v.394Zm.565-.84a.317.317,0,0,1-.246-.088.318.318,0,0,1-.08-.223.318.318,0,0,1,.08-.223.317.317,0,0,1,.246-.088.318.318,0,0,1,.246.088.318.318,0,0,1,.08.223.318.318,0,0,1-.08.223A.318.318,0,0,1,58.211-4.623Zm1.323,3.217v-2.77h.394v1.188h-.062a1.893,1.893,0,0,1,.112-.693.88.88,0,0,1,.34-.431,1.04,1.04,0,0,1,.576-.148h.021a.917.917,0,0,1,.776.327,1.524,1.524,0,0,1,.252.944v1.582h-.5V-3.092a.726.726,0,0,0-.182-.516.648.648,0,0,0-.5-.195.716.716,0,0,0-.529.2.729.729,0,0,0-.2.54v1.655Zm5.229,0L63.721-2.7h-.457l1.271-1.479h.524L63.908-2.843l.036-.265,1.4,1.7Zm-1.909,0V-5.193h.5v3.787Zm4.628,0v-.83H67.4V-3.2a.578.578,0,0,0-.148-.431.593.593,0,0,0-.433-.145q-.161,0-.332.005l-.327.01q-.156.005-.27.016v-.436q.114-.01.241-.018t.262-.01l.259,0a2.01,2.01,0,0,1,.7.1.739.739,0,0,1,.4.329,1.251,1.251,0,0,1,.13.617v1.754Zm-.908.073a1.25,1.25,0,0,1-.537-.106.786.786,0,0,1-.348-.309.928.928,0,0,1-.122-.488.865.865,0,0,1,.132-.493.81.81,0,0,1,.386-.3,1.656,1.656,0,0,1,.612-.1h.752v.374h-.773a.666.666,0,0,0-.462.145.481.481,0,0,0-.161.374.465.465,0,0,0,.161.368.682.682,0,0,0,.462.14.893.893,0,0,0,.337-.065.591.591,0,0,0,.267-.218.787.787,0,0,0,.117-.423l.135.2a1.177,1.177,0,0,1-.143.5.767.767,0,0,1-.322.3A1.087,1.087,0,0,1,66.574-1.334ZM69.837-.327q-.192,0-.386-.016T69.08-.384V-.8q.187.026.392.044t.386.018a1.5,1.5,0,0,0,.6-.1.635.635,0,0,0,.327-.316,1.3,1.3,0,0,0,.1-.553v-.529l.166-.394a1.488,1.488,0,0,1-.176.7,1.058,1.058,0,0,1-.418.415,1.184,1.184,0,0,1-.568.137,1.252,1.252,0,0,1-.532-.112,1.242,1.242,0,0,1-.415-.309,1.444,1.444,0,0,1-.27-.454,1.536,1.536,0,0,1-.1-.542V-2.9a1.473,1.473,0,0,1,.1-.542,1.346,1.346,0,0,1,.275-.438,1.231,1.231,0,0,1,.423-.291,1.383,1.383,0,0,1,.542-.1,1.234,1.234,0,0,1,.612.148,1.056,1.056,0,0,1,.418.431A1.567,1.567,0,0,1,71.119-3l-.145.005V-4.177h.394v2.444a1.823,1.823,0,0,1-.153.807.942.942,0,0,1-.488.454A2.268,2.268,0,0,1,69.837-.327Zm.15-1.515a.952.952,0,0,0,.454-.109.826.826,0,0,0,.327-.314.942.942,0,0,0,.122-.49v-.239a.837.837,0,0,0-.127-.472.82.82,0,0,0-.329-.291.993.993,0,0,0-.441-.1.91.91,0,0,0-.477.125.841.841,0,0,0-.322.35,1.164,1.164,0,0,0-.114.532,1.159,1.159,0,0,0,.117.534.843.843,0,0,0,.322.35A.9.9,0,0,0,69.988-1.842Zm3.481.529a1.462,1.462,0,0,1-.628-.125,1.2,1.2,0,0,1-.431-.329,1.387,1.387,0,0,1-.246-.459,1.71,1.71,0,0,1-.08-.519v-.093a1.727,1.727,0,0,1,.08-.524,1.387,1.387,0,0,1,.246-.459,1.193,1.193,0,0,1,.423-.327,1.4,1.4,0,0,1,.6-.122,1.32,1.32,0,0,1,.744.195,1.2,1.2,0,0,1,.436.5,1.528,1.528,0,0,1,.143.654V-2.7H72.3v-.374h2.1l-.114.2a1.278,1.278,0,0,0-.093-.511.731.731,0,0,0-.28-.335.862.862,0,0,0-.472-.119.841.841,0,0,0-.49.135.812.812,0,0,0-.291.368,1.411,1.411,0,0,0-.1.54,1.4,1.4,0,0,0,.1.532.808.808,0,0,0,.3.374.9.9,0,0,0,.514.137A.9.9,0,0,0,74-1.894a.564.564,0,0,0,.246-.337h.467a1.1,1.1,0,0,1-.228.493,1.1,1.1,0,0,1-.431.316A1.5,1.5,0,0,1,73.469-1.313Zm2.07.851a4.2,4.2,0,0,0,.485-.687,3.309,3.309,0,0,0,.324-.82,4.053,4.053,0,0,0,.114-1,3.937,3.937,0,0,0-.117-1,3.25,3.25,0,0,0-.327-.809,3.789,3.789,0,0,0-.48-.659h-.571a4.458,4.458,0,0,1,.547.721,3.139,3.139,0,0,1,.342.8,3.573,3.573,0,0,1,.117.942,3.709,3.709,0,0,1-.114.947,3.184,3.184,0,0,1-.34.815,4.676,4.676,0,0,1-.553.744Z" transform="translate(-20232.279 -23887.082)" fill="#222"/>
    <path id="Path_22331" data-name="Path 22331" d="M-32.748-7.276v5.2h-1.267v-5.2Zm3.439,1.023a1.5,1.5,0,0,1,1.16.471,1.836,1.836,0,0,1,.434,1.293v2.416h-1.26V-4.319a.908.908,0,0,0-.215-.645.754.754,0,0,0-.578-.23.754.754,0,0,0-.578.23.908.908,0,0,0-.215.645v2.246h-1.267V-6.209h1.267v.548a1.337,1.337,0,0,1,.519-.434A1.649,1.649,0,0,1-29.309-6.254Zm3.743.63a1.376,1.376,0,0,1,.511-.467,1.57,1.57,0,0,1,.763-.178,1.712,1.712,0,0,1,.926.259,1.8,1.8,0,0,1,.656.741,2.472,2.472,0,0,1,.241,1.119,2.5,2.5,0,0,1-.241,1.123,1.818,1.818,0,0,1-.656.749,1.694,1.694,0,0,1-.926.263,1.575,1.575,0,0,1-.76-.178,1.393,1.393,0,0,1-.515-.46V-.1h-1.267V-6.209h1.267Zm1.808,1.475a1.023,1.023,0,0,0-.263-.745.869.869,0,0,0-.648-.271.855.855,0,0,0-.641.274,1.036,1.036,0,0,0-.263.749,1.036,1.036,0,0,0,.263.749.855.855,0,0,0,.641.274.861.861,0,0,0,.645-.278A1.041,1.041,0,0,0-23.758-4.149Zm6.04-2.06v4.135h-1.267v-.563a1.391,1.391,0,0,1-.522.441,1.6,1.6,0,0,1-.73.167,1.635,1.635,0,0,1-.837-.211,1.424,1.424,0,0,1-.563-.611,2.081,2.081,0,0,1-.2-.941V-6.209h1.26v2.246a.908.908,0,0,0,.215.645.754.754,0,0,0,.578.23.763.763,0,0,0,.585-.23.908.908,0,0,0,.215-.645V-6.209ZM-14.5-3.148v1.075h-.645a1.578,1.578,0,0,1-1.075-.337,1.394,1.394,0,0,1-.385-1.1V-5.157h-.5V-6.209h.5V-7.217h1.267v1.008h.83v1.052h-.83V-3.5a.347.347,0,0,0,.089.267.434.434,0,0,0,.3.082Zm4.929,1.075-1.082-1.964h-.3v1.964h-1.267v-5.2H-10.1a2.342,2.342,0,0,1,1.049.215,1.48,1.48,0,0,1,.648.589,1.644,1.644,0,0,1,.215.834,1.549,1.549,0,0,1-.293.926,1.576,1.576,0,0,1-.863.578l1.2,2.06Zm-1.386-2.861h.786A.719.719,0,0,0-9.65-5.1a.643.643,0,0,0,.174-.482.623.623,0,0,0-.174-.467.719.719,0,0,0-.522-.17h-.786Zm7.463.726a3.235,3.235,0,0,1-.022.371H-6.386a.862.862,0,0,0,.248.589.759.759,0,0,0,.537.2.666.666,0,0,0,.66-.4h1.349a1.851,1.851,0,0,1-.374.734,1.874,1.874,0,0,1-.678.511,2.178,2.178,0,0,1-.912.185,2.218,2.218,0,0,1-1.082-.259,1.845,1.845,0,0,1-.741-.741,2.288,2.288,0,0,1-.267-1.127,2.314,2.314,0,0,1,.263-1.127,1.821,1.821,0,0,1,.737-.741,2.234,2.234,0,0,1,1.089-.259,2.211,2.211,0,0,1,1.067.252,1.809,1.809,0,0,1,.73.719A2.182,2.182,0,0,1-3.5-4.208Zm-1.3-.334a.652.652,0,0,0-.222-.519.818.818,0,0,0-.556-.193.8.8,0,0,0-.537.185.823.823,0,0,0-.271.526ZM-.523-3.148v1.075h-.645a1.578,1.578,0,0,1-1.075-.337,1.394,1.394,0,0,1-.385-1.1V-5.157h-.5V-6.209h.5V-7.217h1.267v1.008h.83v1.052h-.83V-3.5a.347.347,0,0,0,.089.267.434.434,0,0,0,.3.082Zm.452-1A2.472,2.472,0,0,1,.17-5.268a1.8,1.8,0,0,1,.656-.741,1.712,1.712,0,0,1,.926-.259,1.591,1.591,0,0,1,.767.178,1.31,1.31,0,0,1,.508.467v-.585H4.294v4.135H3.027v-.585a1.369,1.369,0,0,1-.515.467,1.591,1.591,0,0,1-.767.178,1.682,1.682,0,0,1-.919-.263A1.818,1.818,0,0,1,.17-3.026,2.5,2.5,0,0,1-.071-4.149Zm3.1.007a1.036,1.036,0,0,0-.263-.749.855.855,0,0,0-.641-.274.86.86,0,0,0-.641.271,1.023,1.023,0,0,0-.263.745,1.049,1.049,0,0,0,.263.752.849.849,0,0,0,.641.278.855.855,0,0,0,.641-.274A1.036,1.036,0,0,0,3.027-4.141Zm2.824-2.5a.768.768,0,0,1-.545-.2.636.636,0,0,1-.211-.485.645.645,0,0,1,.211-.493.768.768,0,0,1,.545-.2.758.758,0,0,1,.537.2.645.645,0,0,1,.211.493.636.636,0,0,1-.211.485A.758.758,0,0,1,5.85-6.639Zm.63.43v4.135H5.213V-6.209ZM8.667-7.558v5.484H7.4V-7.558Zm4.817,3.35a3.235,3.235,0,0,1-.022.371H10.594a.862.862,0,0,0,.248.589.759.759,0,0,0,.537.2.666.666,0,0,0,.66-.4h1.349a1.851,1.851,0,0,1-.374.734,1.874,1.874,0,0,1-.678.511,2.178,2.178,0,0,1-.912.185,2.218,2.218,0,0,1-1.082-.259A1.845,1.845,0,0,1,9.6-3.015a2.288,2.288,0,0,1-.267-1.127A2.314,2.314,0,0,1,9.6-5.268a1.821,1.821,0,0,1,.737-.741,2.234,2.234,0,0,1,1.089-.259,2.211,2.211,0,0,1,1.067.252,1.809,1.809,0,0,1,.73.719A2.182,2.182,0,0,1,13.484-4.208Zm-1.3-.334a.652.652,0,0,0-.222-.519.818.818,0,0,0-.556-.193.8.8,0,0,0-.537.185.823.823,0,0,0-.271.526Zm3.231-.978a1.672,1.672,0,0,1,.556-.537,1.433,1.433,0,0,1,.741-.2v1.341h-.348a1.068,1.068,0,0,0-.711.2.905.905,0,0,0-.237.715v1.92H14.151V-6.209h1.267Z" transform="translate(-20184.805 -24066.713)" fill="#222"/>
    <g id="Group_12275" data-name="Group 12275" transform="translate(-20212.879 -24116.65)">
      <path id="Path_20437" data-name="Path 20437" d="M172.73,43.35l-31.969.008h-1.6v4.876h0v1.311a5.071,5.071,0,0,0,4.267,5V72.057h-2.044v3.728H143V73.667h8.9v-1.61h-1.842V67.615h3.886v-1.61h-3.886V58.115h14.323v.462h1.613V56.5H148.443V72.061h-3.4V54.546a5.075,5.075,0,0,0,3.4-2.184,5.066,5.066,0,0,0,4.216,2.25,5,5,0,0,0,4.146-2.157,5.066,5.066,0,0,0,8.3-.016,5.066,5.066,0,0,0,3.443,2.118v4.019h1.613v-4.05a5.074,5.074,0,0,0,4.17-4.977V48.234h0V43.362h-1.6Zm-25.27,6.191a3.216,3.216,0,0,1-3.225,3.22,3.272,3.272,0,0,1-.808-.1,3.227,3.227,0,0,1-2.421-3.119V48.467h6.451v1.075Zm5.2,3.22a3.222,3.222,0,0,1-3.225-3.22V48.467h6.447v1.141A3.223,3.223,0,0,1,152.66,52.761Zm11.518-3.224a3.224,3.224,0,0,1-6.447.07V48.463h6.447Zm8.312,0a3.221,3.221,0,0,1-2.324,3.088,3.173,3.173,0,0,1-.905.132,3.017,3.017,0,0,1-.707-.081,3.218,3.218,0,0,1-2.514-3.138V48.463h6.451Zm.245-2.917H140.765V44.952l31.969-.008v1.672Z" transform="translate(-139.16 -43.35)" fill="#1544ce" stroke="#fff" stroke-width="0.5"/>
      <path id="Path_20438" data-name="Path 20438" d="M199.314,91.16V88.52H187.536v2.64L186.5,92.72h-5.836a.708.708,0,0,0-.707.707V95.9l-1.882,1.949a.634.634,0,0,0-.21.488v8.543a1.411,1.411,0,0,0,1.413,1.413h20.031v-2.644l1.056-1.6V92.76l-1.056-1.6Zm-10.151-.992h8.475v1.556h-8.475Zm-2.68,4.2v1.647h-4.875V94.367Zm-6.963,6.614h1.393v2.787h-1.393Zm9.051,5.661h-9.051V105.4h3.037V99.334h-3.037v-.651l.984-1.02h7.086l.984,1.02v7.959Zm9.1.191h-7.455v-1.556h7.455Zm1.048-3.926-.472.715h-8.031V98.329a.634.634,0,0,0-.21-.488l-1.882-1.882V94.082l.472-.715h9.646l.472.715V102.9Z" transform="translate(-163.262 -71.344)" fill="#1544ce" stroke="#fff" stroke-width="0.5"/>
    </g>
    <path id="Path_22329" data-name="Path 22329" d="M-28.6-2.835h-1.942l-.311.919h-1.327l1.882-5.2h1.467l1.882,5.2h-1.341Zm-.326-.978-.645-1.9-.637,1.9Zm2.3-.163a2.3,2.3,0,0,1,.256-1.1,1.934,1.934,0,0,1,.689-.752,1.751,1.751,0,0,1,.945-.271,1.73,1.73,0,0,1,.7.137,1.29,1.29,0,0,1,.5.382v-.474h1.267V.056h-1.267v-2.49a1.62,1.62,0,0,1-.522.415,1.53,1.53,0,0,1-.7.156,1.738,1.738,0,0,1-.934-.267,1.916,1.916,0,0,1-.686-.749A2.3,2.3,0,0,1-26.624-3.976Zm3.1-.007a1.11,1.11,0,0,0-.13-.56.877.877,0,0,0-.337-.341A.89.89,0,0,0-24.43-5a.876.876,0,0,0-.43.115.9.9,0,0,0-.341.345,1.105,1.105,0,0,0-.133.563,1.085,1.085,0,0,0,.133.56.9.9,0,0,0,.341.341.876.876,0,0,0,.43.115A.9.9,0,0,0-24-3.076a.864.864,0,0,0,.341-.345A1.131,1.131,0,0,0-23.526-3.983Zm6.27-2.068v4.136h-1.267v-.563a1.391,1.391,0,0,1-.522.441,1.6,1.6,0,0,1-.73.167,1.635,1.635,0,0,1-.837-.211,1.424,1.424,0,0,1-.563-.611,2.081,2.081,0,0,1-.2-.941V-6.051h1.26v2.246a.908.908,0,0,0,.215.645.754.754,0,0,0,.578.23.763.763,0,0,0,.585-.23.908.908,0,0,0,.215-.645V-6.051Zm.66,2.06a2.472,2.472,0,0,1,.241-1.119,1.8,1.8,0,0,1,.656-.741,1.712,1.712,0,0,1,.926-.259,1.591,1.591,0,0,1,.767.178,1.31,1.31,0,0,1,.508.467v-.585h1.267v4.136H-13.5V-2.5a1.369,1.369,0,0,1-.515.467,1.591,1.591,0,0,1-.767.178,1.682,1.682,0,0,1-.919-.263,1.818,1.818,0,0,1-.656-.749A2.5,2.5,0,0,1-16.6-3.991Zm3.1.007a1.036,1.036,0,0,0-.263-.749.855.855,0,0,0-.641-.274.86.86,0,0,0-.641.271,1.023,1.023,0,0,0-.263.745,1.049,1.049,0,0,0,.263.752.849.849,0,0,0,.641.278.855.855,0,0,0,.641-.274A1.036,1.036,0,0,0-13.5-3.983Zm1.934,0A2.314,2.314,0,0,1-11.3-5.11a1.827,1.827,0,0,1,.734-.741A2.2,2.2,0,0,1-9.489-6.11a2.05,2.05,0,0,1,1.3.408A1.923,1.923,0,0,1-7.5-4.554H-8.852a.649.649,0,0,0-.66-.474.665.665,0,0,0-.556.271,1.251,1.251,0,0,0-.208.774,1.251,1.251,0,0,0,.208.774.665.665,0,0,0,.556.271.649.649,0,0,0,.66-.474H-7.5a1.941,1.941,0,0,1-.689,1.141,2.029,2.029,0,0,1-1.3.415,2.2,2.2,0,0,1-1.078-.259,1.827,1.827,0,0,1-.734-.741A2.314,2.314,0,0,1-11.564-3.983Zm8.819-2.068v4.136H-4.012v-.563a1.391,1.391,0,0,1-.522.441,1.6,1.6,0,0,1-.73.167A1.635,1.635,0,0,1-6.1-2.082a1.424,1.424,0,0,1-.563-.611,2.081,2.081,0,0,1-.2-.941V-6.051h1.26v2.246a.908.908,0,0,0,.215.645.754.754,0,0,0,.578.23.763.763,0,0,0,.585-.23.908.908,0,0,0,.215-.645V-6.051ZM-.566-7.4v5.484H-1.833V-7.4ZM2.658-2.99v1.075H2.013A1.578,1.578,0,0,1,.939-2.253a1.394,1.394,0,0,1-.385-1.1V-5h-.5V-6.051h.5V-7.059H1.821v1.008h.83V-5h-.83v1.66a.347.347,0,0,0,.089.267.434.434,0,0,0,.3.082ZM7.446-6.051v4.136H6.178v-.563a1.391,1.391,0,0,1-.522.441,1.6,1.6,0,0,1-.73.167,1.635,1.635,0,0,1-.837-.211,1.424,1.424,0,0,1-.563-.611,2.081,2.081,0,0,1-.2-.941V-6.051h1.26v2.246a.908.908,0,0,0,.215.645.754.754,0,0,0,.578.23.763.763,0,0,0,.585-.23.908.908,0,0,0,.215-.645V-6.051Zm2.179.689a1.672,1.672,0,0,1,.556-.537,1.433,1.433,0,0,1,.741-.2v1.341h-.348a1.068,1.068,0,0,0-.711.2.905.905,0,0,0-.237.715v1.92H8.357V-6.051H9.625Zm5.8,1.312a3.235,3.235,0,0,1-.022.371H12.537a.862.862,0,0,0,.248.589.759.759,0,0,0,.537.2.666.666,0,0,0,.66-.4h1.349a1.851,1.851,0,0,1-.374.734,1.874,1.874,0,0,1-.678.511,2.178,2.178,0,0,1-.912.185,2.218,2.218,0,0,1-1.082-.259,1.845,1.845,0,0,1-.741-.741,2.288,2.288,0,0,1-.267-1.127A2.314,2.314,0,0,1,11.54-5.11a1.821,1.821,0,0,1,.737-.741,2.234,2.234,0,0,1,1.089-.259,2.211,2.211,0,0,1,1.067.252,1.809,1.809,0,0,1,.73.719A2.182,2.182,0,0,1,15.428-4.05Zm-1.3-.334a.652.652,0,0,0-.222-.519.818.818,0,0,0-.556-.193.8.8,0,0,0-.537.185.823.823,0,0,0-.271.526Zm-34.6,9.123V5.755h-2.12v1.1h1.586v.986h-1.586v2.1H-23.86V4.74Zm.415,3.128a2.472,2.472,0,0,1,.241-1.119,1.8,1.8,0,0,1,.656-.741,1.712,1.712,0,0,1,.926-.259,1.591,1.591,0,0,1,.767.178,1.31,1.31,0,0,1,.508.467V5.807h1.267V9.942H-16.96V9.357a1.369,1.369,0,0,1-.515.467,1.591,1.591,0,0,1-.767.178,1.682,1.682,0,0,1-.919-.263,1.818,1.818,0,0,1-.656-.749A2.5,2.5,0,0,1-20.058,7.867Zm3.1.007a1.036,1.036,0,0,0-.263-.749.855.855,0,0,0-.641-.274.86.86,0,0,0-.641.271,1.023,1.023,0,0,0-.263.745,1.049,1.049,0,0,0,.263.752.849.849,0,0,0,.641.278.855.855,0,0,0,.641-.274A1.036,1.036,0,0,0-16.96,7.875ZM-13.506,6.5a1.672,1.672,0,0,1,.556-.537,1.433,1.433,0,0,1,.741-.2V7.1h-.348a1.068,1.068,0,0,0-.711.2.905.905,0,0,0-.237.715v1.92h-1.267V5.807h1.267Zm7.182-.734A1.636,1.636,0,0,1-5.1,6.229a1.778,1.778,0,0,1,.456,1.3V9.942H-5.9V7.7a.854.854,0,0,0-.211-.619.771.771,0,0,0-.582-.219.771.771,0,0,0-.582.219.854.854,0,0,0-.211.619V9.942h-1.26V7.7a.854.854,0,0,0-.211-.619.771.771,0,0,0-.582-.219.771.771,0,0,0-.582.219.854.854,0,0,0-.211.619V9.942H-11.6V5.807h1.267v.519a1.357,1.357,0,0,1,.5-.411,1.584,1.584,0,0,1,.7-.152,1.713,1.713,0,0,1,.834.2,1.435,1.435,0,0,1,.574.571,1.666,1.666,0,0,1,.585-.556A1.582,1.582,0,0,1-6.324,5.762ZM.146,7.808a3.235,3.235,0,0,1-.022.371H-2.745a.862.862,0,0,0,.248.589.759.759,0,0,0,.537.2.666.666,0,0,0,.66-.4H.049a1.851,1.851,0,0,1-.374.734A1.874,1.874,0,0,1-1,9.816,2.178,2.178,0,0,1-1.915,10,2.218,2.218,0,0,1-3,9.742,1.845,1.845,0,0,1-3.738,9,2.288,2.288,0,0,1-4,7.875a2.314,2.314,0,0,1,.263-1.127A1.821,1.821,0,0,1-3,6.007a2.234,2.234,0,0,1,1.089-.259A2.211,2.211,0,0,1-.847,6a1.809,1.809,0,0,1,.73.719A2.182,2.182,0,0,1,.146,7.808Zm-1.3-.334a.652.652,0,0,0-.222-.519.818.818,0,0,0-.556-.193.8.8,0,0,0-.537.185.823.823,0,0,0-.271.526ZM2.08,6.5a1.672,1.672,0,0,1,.556-.537,1.433,1.433,0,0,1,.741-.2V7.1H3.029a1.068,1.068,0,0,0-.711.2.905.905,0,0,0-.237.715v1.92H.813V5.807H2.08ZM5.667,10A2.377,2.377,0,0,1,4.7,9.816a1.645,1.645,0,0,1-.667-.508,1.335,1.335,0,0,1-.274-.723H5.015a.482.482,0,0,0,.2.348.708.708,0,0,0,.437.133.624.624,0,0,0,.367-.093.284.284,0,0,0,.13-.241.278.278,0,0,0-.185-.263,3.743,3.743,0,0,0-.6-.189,5.636,5.636,0,0,1-.741-.219A1.281,1.281,0,0,1,4.111,7.7.99.99,0,0,1,3.9,7.03a1.139,1.139,0,0,1,.2-.648,1.322,1.322,0,0,1,.578-.463,2.214,2.214,0,0,1,.908-.17A1.82,1.82,0,0,1,6.8,6.133,1.5,1.5,0,0,1,7.32,7.156H6.149a.5.5,0,0,0-.189-.341.656.656,0,0,0-.419-.126.579.579,0,0,0-.341.085.272.272,0,0,0-.119.233.285.285,0,0,0,.189.267,3.027,3.027,0,0,0,.589.178,6.446,6.446,0,0,1,.749.233,1.291,1.291,0,0,1,.508.371,1.049,1.049,0,0,1,.226.686,1.088,1.088,0,0,1-.2.648,1.348,1.348,0,0,1-.585.448A2.239,2.239,0,0,1,5.667,10Z" transform="translate(-20185.281 -23945.783)" fill="#222"/>
    <path id="Path_22327" data-name="Path 22327" d="M2.451-1.978a2.676,2.676,0,0,1-1.023-.185,1.667,1.667,0,0,1-.723-.548A1.5,1.5,0,0,1,.42-3.586H1.769a.654.654,0,0,0,.2.441.643.643,0,0,0,.445.152.7.7,0,0,0,.445-.13.434.434,0,0,0,.163-.359.425.425,0,0,0-.13-.319,1.046,1.046,0,0,0-.319-.208,5.126,5.126,0,0,0-.537-.185A5.85,5.85,0,0,1,1.213-4.5a1.52,1.52,0,0,1-.548-.459,1.28,1.28,0,0,1-.23-.793A1.364,1.364,0,0,1,.961-6.9a2.162,2.162,0,0,1,1.371-.411A2.187,2.187,0,0,1,3.718-6.9,1.472,1.472,0,0,1,4.281-5.75H2.91a.536.536,0,0,0-.185-.4.653.653,0,0,0-.437-.145.545.545,0,0,0-.371.122.441.441,0,0,0-.141.352.436.436,0,0,0,.237.393,3.888,3.888,0,0,0,.741.3,6.854,6.854,0,0,1,.819.326,1.559,1.559,0,0,1,.545.452,1.21,1.21,0,0,1,.23.763,1.5,1.5,0,0,1-.226.808,1.583,1.583,0,0,1-.656.578A2.245,2.245,0,0,1,2.451-1.978ZM9.025-4.164A3.235,3.235,0,0,1,9-3.793H6.134a.862.862,0,0,0,.248.589A.759.759,0,0,0,6.92-3a.666.666,0,0,0,.66-.4H8.928a1.851,1.851,0,0,1-.374.734,1.874,1.874,0,0,1-.678.511,2.178,2.178,0,0,1-.912.185A2.218,2.218,0,0,1,5.882-2.23a1.845,1.845,0,0,1-.741-.741A2.288,2.288,0,0,1,4.874-4.1a2.314,2.314,0,0,1,.263-1.127,1.821,1.821,0,0,1,.737-.741,2.234,2.234,0,0,1,1.089-.259,2.211,2.211,0,0,1,1.067.252,1.809,1.809,0,0,1,.73.719A2.182,2.182,0,0,1,9.025-4.164ZM7.728-4.5a.652.652,0,0,0-.222-.519.818.818,0,0,0-.556-.193.8.8,0,0,0-.537.185.823.823,0,0,0-.271.526ZM9.44-4.1A2.472,2.472,0,0,1,9.68-5.224a1.8,1.8,0,0,1,.656-.741,1.712,1.712,0,0,1,.926-.259,1.591,1.591,0,0,1,.767.178,1.31,1.31,0,0,1,.508.467v-.585H13.8V-2.03H12.537v-.585a1.369,1.369,0,0,1-.515.467,1.591,1.591,0,0,1-.767.178,1.682,1.682,0,0,1-.919-.263,1.818,1.818,0,0,1-.656-.749A2.5,2.5,0,0,1,9.44-4.1Zm3.1.007a1.036,1.036,0,0,0-.263-.749.855.855,0,0,0-.641-.274.86.86,0,0,0-.641.271,1.023,1.023,0,0,0-.263.745,1.049,1.049,0,0,0,.263.752.849.849,0,0,0,.641.278.855.855,0,0,0,.641-.274A1.036,1.036,0,0,0,12.537-4.1ZM16.8-5.113h-.682V-2.03H14.85V-5.113h-.46V-6.165h.46v-.119a1.486,1.486,0,0,1,.437-1.16,1.849,1.849,0,0,1,1.282-.4q.141,0,.208.007v1.075a.727.727,0,0,0-.511.1.571.571,0,0,0-.148.452v.037H16.8ZM19.274-1.97a2.283,2.283,0,0,1-1.093-.259,1.9,1.9,0,0,1-.763-.741A2.215,2.215,0,0,1,17.14-4.1a2.2,2.2,0,0,1,.282-1.123,1.911,1.911,0,0,1,.771-.745,2.3,2.3,0,0,1,1.1-.259,2.3,2.3,0,0,1,1.1.259,1.911,1.911,0,0,1,.771.745A2.2,2.2,0,0,1,21.438-4.1a2.174,2.174,0,0,1-.285,1.123,1.929,1.929,0,0,1-.778.745A2.326,2.326,0,0,1,19.274-1.97Zm0-1.1a.826.826,0,0,0,.619-.267,1.06,1.06,0,0,0,.256-.763,1.08,1.08,0,0,0-.248-.763.8.8,0,0,0-.611-.267.8.8,0,0,0-.615.263,1.088,1.088,0,0,0-.245.767,1.1,1.1,0,0,0,.241.763A.78.78,0,0,0,19.274-3.067ZM24-1.97A2.283,2.283,0,0,1,22.9-2.23a1.9,1.9,0,0,1-.763-.741A2.215,2.215,0,0,1,21.861-4.1a2.2,2.2,0,0,1,.282-1.123,1.911,1.911,0,0,1,.771-.745,2.3,2.3,0,0,1,1.1-.259,2.3,2.3,0,0,1,1.1.259,1.911,1.911,0,0,1,.771.745A2.2,2.2,0,0,1,26.159-4.1a2.174,2.174,0,0,1-.285,1.123,1.929,1.929,0,0,1-.778.745A2.326,2.326,0,0,1,24-1.97Zm0-1.1a.826.826,0,0,0,.619-.267A1.06,1.06,0,0,0,24.87-4.1a1.08,1.08,0,0,0-.248-.763.8.8,0,0,0-.611-.267.8.8,0,0,0-.615.263,1.088,1.088,0,0,0-.245.767,1.1,1.1,0,0,0,.241.763A.78.78,0,0,0,24-3.067ZM26.582-4.1a2.472,2.472,0,0,1,.241-1.119,1.8,1.8,0,0,1,.656-.741,1.712,1.712,0,0,1,.926-.259,1.627,1.627,0,0,1,.745.17,1.357,1.357,0,0,1,.53.46v-1.92h1.267V-2.03H29.68v-.593a1.291,1.291,0,0,1-.508.474,1.591,1.591,0,0,1-.767.178,1.694,1.694,0,0,1-.926-.263,1.818,1.818,0,0,1-.656-.749A2.5,2.5,0,0,1,26.582-4.1Zm3.1.007a1.036,1.036,0,0,0-.263-.749.855.855,0,0,0-.641-.274.86.86,0,0,0-.641.271,1.023,1.023,0,0,0-.263.745,1.049,1.049,0,0,0,.263.752.849.849,0,0,0,.641.278.855.855,0,0,0,.641-.274A1.036,1.036,0,0,0,29.68-4.1Zm6.907-.6a1.21,1.21,0,0,1,.726.448,1.273,1.273,0,0,1,.274.8,1.278,1.278,0,0,1-.456,1.034,1.923,1.923,0,0,1-1.271.382H33.437v-5.2h2.342a1.92,1.92,0,0,1,1.241.363,1.2,1.2,0,0,1,.448.986,1.191,1.191,0,0,1-.241.763A1.246,1.246,0,0,1,36.587-4.7ZM34.7-5.127h.83a.735.735,0,0,0,.478-.137.493.493,0,0,0,.167-.4.5.5,0,0,0-.167-.408.721.721,0,0,0-.478-.141H34.7Zm.934,2.075a.752.752,0,0,0,.493-.145.513.513,0,0,0,.174-.419.536.536,0,0,0-.182-.43.744.744,0,0,0-.5-.156H34.7v1.149ZM42.4-6.165V-2.03H41.138v-.563a1.391,1.391,0,0,1-.522.441,1.6,1.6,0,0,1-.73.167,1.635,1.635,0,0,1-.837-.211,1.424,1.424,0,0,1-.563-.611,2.081,2.081,0,0,1-.2-.941V-6.165h1.26v2.246a.908.908,0,0,0,.215.645.754.754,0,0,0,.578.23.763.763,0,0,0,.585-.23.908.908,0,0,0,.215-.645V-6.165Zm5.136,0-2.594,6.1H43.583l.949-2.1L42.85-6.165h1.416l.956,2.587.949-2.587Zm4.358,2a3.237,3.237,0,0,1-.022.371H49.008a.862.862,0,0,0,.248.589.758.758,0,0,0,.537.2.666.666,0,0,0,.66-.4H51.8a1.851,1.851,0,0,1-.374.734,1.874,1.874,0,0,1-.678.511,2.178,2.178,0,0,1-.912.185,2.218,2.218,0,0,1-1.082-.259,1.845,1.845,0,0,1-.741-.741A2.288,2.288,0,0,1,47.748-4.1a2.314,2.314,0,0,1,.263-1.127,1.821,1.821,0,0,1,.737-.741,2.234,2.234,0,0,1,1.089-.259,2.211,2.211,0,0,1,1.067.252,1.809,1.809,0,0,1,.73.719A2.182,2.182,0,0,1,51.9-4.164ZM50.6-4.5a.652.652,0,0,0-.222-.519.818.818,0,0,0-.556-.193.8.8,0,0,0-.537.185.823.823,0,0,0-.271.526Zm3.231-.978a1.672,1.672,0,0,1,.556-.537,1.433,1.433,0,0,1,.741-.2v1.341h-.348a1.068,1.068,0,0,0-.711.2.905.905,0,0,0-.237.715v1.92H52.566V-6.165h1.267ZM57.42-1.97a2.377,2.377,0,0,1-.963-.185,1.645,1.645,0,0,1-.667-.508,1.335,1.335,0,0,1-.274-.723h1.253a.482.482,0,0,0,.2.348.708.708,0,0,0,.437.133A.624.624,0,0,0,57.772-3a.284.284,0,0,0,.13-.241.278.278,0,0,0-.185-.263,3.743,3.743,0,0,0-.6-.189,5.636,5.636,0,0,1-.741-.219,1.281,1.281,0,0,1-.511-.363.99.99,0,0,1-.215-.671,1.139,1.139,0,0,1,.2-.648,1.322,1.322,0,0,1,.578-.463,2.214,2.214,0,0,1,.908-.17,1.82,1.82,0,0,1,1.227.385,1.5,1.5,0,0,1,.515,1.023H57.9a.5.5,0,0,0-.189-.341.656.656,0,0,0-.419-.126.579.579,0,0,0-.341.085.272.272,0,0,0-.119.233.285.285,0,0,0,.189.267,3.027,3.027,0,0,0,.589.178,6.446,6.446,0,0,1,.749.233,1.291,1.291,0,0,1,.508.371,1.049,1.049,0,0,1,.226.686,1.088,1.088,0,0,1-.2.648,1.348,1.348,0,0,1-.585.448A2.239,2.239,0,0,1,57.42-1.97Z" transform="translate(-20223.363 -23811.451)" fill="#222"/>
    <g id="Group_12281" data-name="Group 12281" transform="translate(-20195.355 -24061.26)">
      <path id="Line_1694" data-name="Line 1694" d="M.241,14.966H-.5V0H.241Z" transform="translate(1.823 0)" fill="#1544ce"/>
      <path id="Path_20459" data-name="Path 20459" d="M184.592,203.6l-1.7-1.7.524-.524,1.171,1.171,1.167-1.17.525.523Z" transform="translate(-182.896 -194.156)" fill="#1544ce"/>
    </g>
    <path id="Line_1695" data-name="Line 1695" d="M.241,14.962H-.5V0H.241Z" transform="translate(-20193.852 -24020.611)" fill="#1544ce"/>
    <path id="Line_1704" data-name="Line 1704" d="M.241,14.962H-.5V0H.241Z" transform="translate(-20193.852 -23883.262)" fill="#1544ce"/>
    <path id="Path_22330" data-name="Path 22330" d="M1.427-.462a4.2,4.2,0,0,1-.485-.687,3.309,3.309,0,0,1-.324-.82,4.053,4.053,0,0,1-.114-1,3.937,3.937,0,0,1,.117-1,3.25,3.25,0,0,1,.327-.809,3.788,3.788,0,0,1,.48-.659H2a4.457,4.457,0,0,0-.547.721,3.139,3.139,0,0,0-.342.8,3.573,3.573,0,0,0-.117.942,3.71,3.71,0,0,0,.114.947,3.184,3.184,0,0,0,.34.815A4.677,4.677,0,0,0,2-.462Zm1.2-.944V-5.193h.508v3.787Zm.4-1.686v-.457L4.66-3.554V-3.1Zm0-1.645v-.457H4.748v.457Zm4.01,3.331v-.83H6.963V-3.2a.578.578,0,0,0-.148-.431.593.593,0,0,0-.433-.145q-.161,0-.332.005l-.327.01q-.156.005-.27.016v-.436q.114-.01.241-.018t.262-.01l.259,0a2.01,2.01,0,0,1,.7.1.739.739,0,0,1,.4.329,1.251,1.251,0,0,1,.13.617v1.754Zm-.908.073A1.25,1.25,0,0,1,5.6-1.44a.786.786,0,0,1-.348-.309.928.928,0,0,1-.122-.488.865.865,0,0,1,.132-.493.81.81,0,0,1,.386-.3,1.656,1.656,0,0,1,.612-.1h.752v.374H6.242a.666.666,0,0,0-.462.145.481.481,0,0,0-.161.374.465.465,0,0,0,.161.368.682.682,0,0,0,.462.14.893.893,0,0,0,.337-.065.591.591,0,0,0,.267-.218.787.787,0,0,0,.117-.423l.135.2a1.177,1.177,0,0,1-.143.5.767.767,0,0,1-.322.3A1.087,1.087,0,0,1,6.138-1.334Zm2.215-.073v-2.77h.394v1.141H8.727a1.261,1.261,0,0,1,.267-.89,1.052,1.052,0,0,1,.8-.283h.093v.446H9.713a.869.869,0,0,0-.638.22.854.854,0,0,0-.223.636v1.5Zm2.127,0v-2.77h.394v1.188h-.062a1.96,1.96,0,0,1,.106-.687.9.9,0,0,1,.319-.433.912.912,0,0,1,.54-.15H11.8a.924.924,0,0,1,.542.15.88.88,0,0,1,.319.433,2,2,0,0,1,.1.687h-.145a1.917,1.917,0,0,1,.109-.687.91.91,0,0,1,.324-.433.924.924,0,0,1,.542-.15h.021a.936.936,0,0,1,.545.15.888.888,0,0,1,.324.433,1.96,1.96,0,0,1,.106.687v1.582h-.5V-3.1a.752.752,0,0,0-.166-.521.59.59,0,0,0-.462-.184.652.652,0,0,0-.493.195.751.751,0,0,0-.187.542v1.66h-.5V-3.1a.752.752,0,0,0-.166-.521.59.59,0,0,0-.462-.184.652.652,0,0,0-.493.195.751.751,0,0,0-.187.542v1.66Zm6.34,0v-2.77h.5v2.77Zm-.425-2.376v-.394h.923v.394Zm.565-.84a.317.317,0,0,1-.246-.088.318.318,0,0,1-.08-.223.318.318,0,0,1,.08-.223.317.317,0,0,1,.246-.088.317.317,0,0,1,.246.088.318.318,0,0,1,.08.223.318.318,0,0,1-.08.223A.317.317,0,0,1,16.96-4.623Zm1.323,3.217v-2.77h.394v1.188h-.062a1.893,1.893,0,0,1,.112-.693.88.88,0,0,1,.34-.431,1.04,1.04,0,0,1,.576-.148h.021a.917.917,0,0,1,.776.327,1.524,1.524,0,0,1,.252.944v1.582h-.5V-3.092a.726.726,0,0,0-.182-.516.648.648,0,0,0-.5-.195.716.716,0,0,0-.529.2.729.729,0,0,0-.2.54v1.655ZM21.6-.369V-4.177H22v1.2l-.093-.01a1.639,1.639,0,0,1,.189-.729,1.035,1.035,0,0,1,.428-.418A1.249,1.249,0,0,1,23.1-4.27a1.287,1.287,0,0,1,.547.114,1.285,1.285,0,0,1,.423.311,1.376,1.376,0,0,1,.27.457,1.611,1.611,0,0,1,.093.55v.093a1.535,1.535,0,0,1-.1.55,1.425,1.425,0,0,1-.278.457,1.314,1.314,0,0,1-.425.311,1.274,1.274,0,0,1-.542.114,1.289,1.289,0,0,1-.565-.13,1.059,1.059,0,0,1-.446-.42,1.633,1.633,0,0,1-.2-.763l.228.415V-.369Zm1.406-1.38a.888.888,0,0,0,.488-.132.88.88,0,0,0,.322-.368,1.231,1.231,0,0,0,.114-.542,1.226,1.226,0,0,0-.114-.545A.883.883,0,0,0,23.5-3.7a.888.888,0,0,0-.488-.132.979.979,0,0,0-.462.112.856.856,0,0,0-.34.322.959.959,0,0,0-.127.506v.239a.885.885,0,0,0,.13.488.873.873,0,0,0,.342.311A.987.987,0,0,0,23.009-1.749Zm3.128.425a.925.925,0,0,1-.757-.322,1.429,1.429,0,0,1-.265-.929V-4.182h.5v1.707a.709.709,0,0,0,.176.511.63.63,0,0,0,.477.184.683.683,0,0,0,.508-.2.745.745,0,0,0,.2-.547V-4.182h.5v2.776h-.394V-2.594h.062a1.934,1.934,0,0,1-.109.693.894.894,0,0,1-.324.431.946.946,0,0,1-.547.148Zm3.377-.052a1.474,1.474,0,0,1-.537-.088.67.67,0,0,1-.348-.3,1.186,1.186,0,0,1-.122-.584V-5.017h.477v2.729a.467.467,0,0,0,.122.345.467.467,0,0,0,.345.122h.488v.446ZM28.031-3.8v-.374H29.94V-3.8Zm3.8,2.4v-2.77h.394v1.188h-.062a1.96,1.96,0,0,1,.106-.687.9.9,0,0,1,.319-.433.912.912,0,0,1,.54-.15h.021a.924.924,0,0,1,.542.15.88.88,0,0,1,.319.433,2,2,0,0,1,.1.687h-.145a1.917,1.917,0,0,1,.109-.687.91.91,0,0,1,.324-.433.924.924,0,0,1,.542-.15h.021a.936.936,0,0,1,.545.15.888.888,0,0,1,.324.433,1.96,1.96,0,0,1,.106.687v1.582h-.5V-3.1a.752.752,0,0,0-.166-.521.59.59,0,0,0-.462-.184.652.652,0,0,0-.493.195.751.751,0,0,0-.187.542v1.66h-.5V-3.1a.752.752,0,0,0-.166-.521.59.59,0,0,0-.462-.184.652.652,0,0,0-.493.195.751.751,0,0,0-.187.542v1.66Zm6.7,0v-.83h-.083V-3.2a.578.578,0,0,0-.148-.431.593.593,0,0,0-.433-.145q-.161,0-.332.005l-.327.01q-.156.005-.27.016v-.436q.114-.01.241-.018t.262-.01l.259,0a2.01,2.01,0,0,1,.7.1.739.739,0,0,1,.4.329,1.251,1.251,0,0,1,.13.617v1.754Zm-.908.073a1.25,1.25,0,0,1-.537-.106.786.786,0,0,1-.348-.309.928.928,0,0,1-.122-.488.865.865,0,0,1,.132-.493.81.81,0,0,1,.386-.3,1.656,1.656,0,0,1,.612-.1H38.5v.374h-.773a.666.666,0,0,0-.462.145.481.481,0,0,0-.161.374.465.465,0,0,0,.161.368.682.682,0,0,0,.462.14.893.893,0,0,0,.337-.065.591.591,0,0,0,.267-.218.787.787,0,0,0,.117-.423l.135.2a1.177,1.177,0,0,1-.143.5.767.767,0,0,1-.322.3A1.087,1.087,0,0,1,37.618-1.334Zm2.215-.073v-2.77h.394v1.141h-.021a1.261,1.261,0,0,1,.267-.89,1.052,1.052,0,0,1,.8-.283h.093v.446h-.176a.869.869,0,0,0-.638.22.854.854,0,0,0-.223.636v1.5Zm4.036,0L42.827-2.7H42.37l1.271-1.479h.524L43.014-2.843l.036-.265,1.4,1.7Zm-1.909,0V-5.193h.5v3.787Zm4.088.093a1.462,1.462,0,0,1-.628-.125,1.2,1.2,0,0,1-.431-.329,1.387,1.387,0,0,1-.246-.459,1.71,1.71,0,0,1-.08-.519v-.093a1.727,1.727,0,0,1,.08-.524,1.387,1.387,0,0,1,.246-.459,1.193,1.193,0,0,1,.423-.327,1.4,1.4,0,0,1,.6-.122,1.32,1.32,0,0,1,.744.195,1.2,1.2,0,0,1,.436.5,1.528,1.528,0,0,1,.143.654V-2.7H44.881v-.374h2.1l-.114.2a1.278,1.278,0,0,0-.093-.511.731.731,0,0,0-.28-.335.862.862,0,0,0-.472-.119.841.841,0,0,0-.49.135.812.812,0,0,0-.291.368,1.41,1.41,0,0,0-.1.54,1.4,1.4,0,0,0,.1.532.808.808,0,0,0,.3.374.9.9,0,0,0,.514.137.9.9,0,0,0,.532-.145.564.564,0,0,0,.246-.337h.467a1.1,1.1,0,0,1-.228.493,1.1,1.1,0,0,1-.431.316A1.5,1.5,0,0,1,46.049-1.313Zm3.076-.062a1.474,1.474,0,0,1-.537-.088.67.67,0,0,1-.348-.3,1.186,1.186,0,0,1-.122-.584V-5.017H48.6v2.729a.467.467,0,0,0,.122.345.467.467,0,0,0,.345.122h.488v.446ZM47.641-3.8v-.374H49.55V-3.8Zm3.829,2.4V-5.193h.5v3.787ZM51.086-4.8v-.394h.882V-4.8Zm1.971,3.393v-2.77h.5v2.77Zm-.425-2.376v-.394h.923v.394Zm.565-.84a.317.317,0,0,1-.246-.088.318.318,0,0,1-.08-.223.318.318,0,0,1,.08-.223.317.317,0,0,1,.246-.088.318.318,0,0,1,.246.088.318.318,0,0,1,.08.223.318.318,0,0,1-.08.223A.318.318,0,0,1,53.2-4.623ZM54.52-1.406v-2.77h.394v1.188h-.062a1.893,1.893,0,0,1,.112-.693.88.88,0,0,1,.34-.431,1.04,1.04,0,0,1,.576-.148H55.9a.917.917,0,0,1,.776.327,1.524,1.524,0,0,1,.252.944v1.582h-.5V-3.092a.726.726,0,0,0-.182-.516.648.648,0,0,0-.5-.195.716.716,0,0,0-.529.2.729.729,0,0,0-.2.54v1.655Zm5.229,0L58.707-2.7h-.457l1.271-1.479h.524L58.894-2.843l.036-.265,1.4,1.7Zm-1.909,0V-5.193h.5v3.787Zm4.628,0v-.83h-.083V-3.2a.578.578,0,0,0-.148-.431.593.593,0,0,0-.433-.145q-.161,0-.332.005l-.327.01q-.156.005-.27.016v-.436q.114-.01.241-.018t.262-.01l.259,0a2.01,2.01,0,0,1,.7.1.739.739,0,0,1,.4.329,1.251,1.251,0,0,1,.13.617v1.754Zm-.908.073a1.25,1.25,0,0,1-.537-.106.786.786,0,0,1-.348-.309.928.928,0,0,1-.122-.488.865.865,0,0,1,.132-.493.81.81,0,0,1,.386-.3,1.656,1.656,0,0,1,.612-.1h.752v.374h-.773a.666.666,0,0,0-.462.145.481.481,0,0,0-.161.374.465.465,0,0,0,.161.368.682.682,0,0,0,.462.14A.893.893,0,0,0,62-1.793a.591.591,0,0,0,.267-.218.787.787,0,0,0,.117-.423l.135.2a1.177,1.177,0,0,1-.143.5.767.767,0,0,1-.322.3A1.087,1.087,0,0,1,61.56-1.334ZM64.824-.327q-.192,0-.387-.016t-.371-.042V-.8q.187.026.392.044t.386.018a1.5,1.5,0,0,0,.6-.1.635.635,0,0,0,.327-.316,1.3,1.3,0,0,0,.1-.553v-.529l.166-.394a1.488,1.488,0,0,1-.176.7,1.058,1.058,0,0,1-.418.415,1.184,1.184,0,0,1-.568.137,1.252,1.252,0,0,1-.532-.112,1.242,1.242,0,0,1-.415-.309,1.444,1.444,0,0,1-.27-.454,1.536,1.536,0,0,1-.1-.542V-2.9a1.473,1.473,0,0,1,.1-.542,1.346,1.346,0,0,1,.275-.438,1.231,1.231,0,0,1,.423-.291,1.383,1.383,0,0,1,.542-.1,1.234,1.234,0,0,1,.612.148,1.056,1.056,0,0,1,.418.431A1.567,1.567,0,0,1,66.105-3l-.145.005V-4.177h.394v2.444a1.823,1.823,0,0,1-.153.807.942.942,0,0,1-.488.454A2.268,2.268,0,0,1,64.824-.327Zm.15-1.515a.952.952,0,0,0,.454-.109.826.826,0,0,0,.327-.314.942.942,0,0,0,.122-.49v-.239a.837.837,0,0,0-.127-.472.82.82,0,0,0-.329-.291.993.993,0,0,0-.441-.1.91.91,0,0,0-.477.125.841.841,0,0,0-.322.35,1.164,1.164,0,0,0-.114.532,1.159,1.159,0,0,0,.117.534.843.843,0,0,0,.322.35A.9.9,0,0,0,64.974-1.842Zm3.481.529a1.462,1.462,0,0,1-.628-.125,1.2,1.2,0,0,1-.431-.329,1.387,1.387,0,0,1-.246-.459,1.71,1.71,0,0,1-.08-.519v-.093a1.727,1.727,0,0,1,.08-.524,1.387,1.387,0,0,1,.246-.459,1.193,1.193,0,0,1,.423-.327,1.4,1.4,0,0,1,.6-.122,1.32,1.32,0,0,1,.744.195,1.2,1.2,0,0,1,.436.5,1.528,1.528,0,0,1,.143.654V-2.7H67.288v-.374h2.1l-.114.2a1.278,1.278,0,0,0-.093-.511.731.731,0,0,0-.28-.335.861.861,0,0,0-.472-.119.841.841,0,0,0-.49.135.812.812,0,0,0-.291.368,1.411,1.411,0,0,0-.1.54,1.4,1.4,0,0,0,.1.532.808.808,0,0,0,.3.374.9.9,0,0,0,.514.137.9.9,0,0,0,.532-.145.564.564,0,0,0,.246-.337H69.7a1.1,1.1,0,0,1-.228.493,1.1,1.1,0,0,1-.431.316A1.5,1.5,0,0,1,68.455-1.313Zm2.07.851a4.2,4.2,0,0,0,.485-.687,3.309,3.309,0,0,0,.324-.82,4.053,4.053,0,0,0,.114-1,3.937,3.937,0,0,0-.117-1A3.249,3.249,0,0,0,71-4.773a3.788,3.788,0,0,0-.48-.659h-.571a4.458,4.458,0,0,1,.547.721,3.139,3.139,0,0,1,.342.8,3.572,3.572,0,0,1,.117.942,3.71,3.71,0,0,1-.114.947,3.184,3.184,0,0,1-.34.815,4.677,4.677,0,0,1-.553.744Z" transform="translate(-20230.055 -24025.508)" fill="#222"/>
    <g id="Group_12287" data-name="Group 12287" transform="translate(-20217.326 -24042.42)">
      <g id="Group_12283" data-name="Group 12283" transform="translate(43.738 0.024)">
        <path id="Path_20461" data-name="Path 20461" d="M243.2,232.535h.218l-.31-.389a.305.305,0,0,0,.107-.028.31.31,0,0,0,.107-.1.273.273,0,0,0,.036-.143.258.258,0,0,0-.036-.139.267.267,0,0,0-.1-.1.319.319,0,0,0-.155-.036H242.7v.925h.179v-.385h.032l.294.385Zm-.326-.778h.167a.142.142,0,0,1,.1.036.135.135,0,0,1,0,.183.141.141,0,0,1-.1.032h-.167Z" transform="translate(-242.033 -231.13)" fill="#1544ce"/>
        <path id="Path_20462" data-name="Path 20462" d="M241.985,232.329a.965.965,0,1,1,.965-.965A.966.966,0,0,1,241.985,232.329Zm0-1.751a.786.786,0,1,0,.786.786A.788.788,0,0,0,241.985,230.579Z" transform="translate(-241.02 -230.4)" fill="#1544ce"/>
      </g>
      <g id="Group_12286" data-name="Group 12286">
        <g id="Group_12284" data-name="Group 12284" transform="translate(0 1.06)">
          <path id="Path_20463" data-name="Path 20463" d="M134.953,233.5l-.5-.492a2.633,2.633,0,0,0-.794.814,1.307,1.307,0,0,0-.429-.325,1.485,1.485,0,0,0-.659-.139,1.633,1.633,0,0,0-.889.242,1.676,1.676,0,0,0-.619.667,2.04,2.04,0,0,0-.226.969,2,2,0,0,0,.226.961,1.766,1.766,0,0,0,.623.667,1.62,1.62,0,0,0,.885.25,1.566,1.566,0,0,0,.667-.139,1.215,1.215,0,0,0,.421-.322,2.709,2.709,0,0,0,.794.81l.492-.492a2.89,2.89,0,0,1,0-3.462m-1.556,2.338a.391.391,0,0,1-.06.056.783.783,0,0,1-.528.183.8.8,0,0,1-.413-.107.758.758,0,0,1-.29-.3.943.943,0,0,1,0-.873.785.785,0,0,1,.29-.3.8.8,0,0,1,.413-.107.844.844,0,0,1,.425.107.949.949,0,0,1,.1.071.69.69,0,0,1,.179.222.951.951,0,0,1,.1.433.871.871,0,0,1-.218.615" transform="translate(-130.84 -233.01)" fill="#1544ce"/>
          <path id="Path_20464" data-name="Path 20464" d="M154.843,237.754a1.828,1.828,0,0,1-.881-.206,1.5,1.5,0,0,1-.607-.568,1.58,1.58,0,0,1-.214-.826V234.07h1.147v2.068a.738.738,0,0,0,.067.322.455.455,0,0,0,.195.21.591.591,0,0,0,.3.075.5.5,0,0,0,.4-.163.652.652,0,0,0,.147-.445V234.07h1.147v2.084a1.625,1.625,0,0,1-.21.834,1.5,1.5,0,0,1-.592.564,1.856,1.856,0,0,1-.885.2" transform="translate(-144.287 -233.649)" fill="#1544ce"/>
          <path id="Path_20465" data-name="Path 20465" d="M144.747,233.971v.294a1.235,1.235,0,0,0-.333-.226,1.485,1.485,0,0,0-.659-.139,1.656,1.656,0,0,0-.893.242,1.676,1.676,0,0,0-.619.667,2.2,2.2,0,0,0,0,1.929,1.777,1.777,0,0,0,.615.667,1.632,1.632,0,0,0,.9.25,1.549,1.549,0,0,0,.655-.139,1.235,1.235,0,0,0,.333-.226v1.81h1.131v-5.121h-1.131Zm-.758,2.644a.815.815,0,0,1-.417-.107.723.723,0,0,1-.286-.3.993.993,0,0,1,0-.873.8.8,0,0,1,.286-.3.82.82,0,0,1,.421-.107.794.794,0,0,1,.417.107.754.754,0,0,1,.282.3.953.953,0,0,1-.123,1.048.769.769,0,0,1-.584.238" transform="translate(-137.582 -233.547)" fill="#1544ce"/>
          <path id="Path_20466" data-name="Path 20466" d="M165.811,234.289a1.336,1.336,0,0,0-.337-.23,1.485,1.485,0,0,0-.659-.139,1.633,1.633,0,0,0-.889.242,1.676,1.676,0,0,0-.619.667,2.039,2.039,0,0,0-.226.969,2,2,0,0,0,.226.961,1.766,1.766,0,0,0,.623.667,1.62,1.62,0,0,0,.885.25,1.565,1.565,0,0,0,.667-.139,1.234,1.234,0,0,0,.333-.226v.294h1.123V234h-1.123v.3Zm-.758,2.346a.8.8,0,0,1-.413-.107.758.758,0,0,1-.29-.3.943.943,0,0,1,0-.873.785.785,0,0,1,.29-.3.8.8,0,0,1,.413-.107.844.844,0,0,1,.425.107.7.7,0,0,1,.282.3.951.951,0,0,1,.1.433.871.871,0,0,1-.218.615.757.757,0,0,1-.584.238" transform="translate(-150.282 -233.559)" fill="#1544ce"/>
        </g>
        <g id="Group_12285" data-name="Group 12285" transform="translate(17.427)">
          <path id="Path_20467" data-name="Path 20467" d="M177.725,234.156a1.7,1.7,0,0,0-.909-.246,1.494,1.494,0,0,0-.667.147,1.4,1.4,0,0,0-.274.175v-.25H174.74V239.1h1.119V237.34a1.619,1.619,0,0,0,.29.179,1.545,1.545,0,0,0,.667.139,1.693,1.693,0,0,0,1.532-.913,2.169,2.169,0,0,0,0-1.929,1.71,1.71,0,0,0-.623-.667Zm-.4,2.068a.821.821,0,0,1-1.127.306.758.758,0,0,1-.286-.306.92.92,0,0,1-.1-.437.942.942,0,0,1,.1-.445.748.748,0,0,1,.286-.3.864.864,0,0,1,.834,0,.776.776,0,0,1,.286.3.942.942,0,0,1,.1.445.921.921,0,0,1-.1.437Z" transform="translate(-174.74 -232.493)" fill="#1544ce"/>
          <path id="Path_20468" data-name="Path 20468" d="M188.009,234.289a1.269,1.269,0,0,0-.337-.23,1.468,1.468,0,0,0-.655-.139,1.632,1.632,0,0,0-.885.246,1.75,1.75,0,0,0-.615.667,2.169,2.169,0,0,0,0,1.929,1.75,1.75,0,0,0,.615.667,1.632,1.632,0,0,0,.885.246,1.555,1.555,0,0,0,.659-.139,1.235,1.235,0,0,0,.333-.226v.294h1.112V234h-1.112v.3Zm-.762,2.354a.783.783,0,0,1-.707-.417.921.921,0,0,1-.1-.437.9.9,0,0,1,.107-.445.785.785,0,0,1,.29-.3.864.864,0,0,1,.834,0,.74.74,0,0,1,.282.3.941.941,0,0,1,.1.445.871.871,0,0,1-.222.611.766.766,0,0,1-.584.242Z" transform="translate(-181.102 -232.499)" fill="#1544ce"/>
          <path id="Path_20469" data-name="Path 20469" d="M199.467,233.989a1.234,1.234,0,0,0-.456-.079,1.209,1.209,0,0,0-.925.349v-.274H196.95v3.6h1.135v-1.977a.741.741,0,0,1,.167-.524.6.6,0,0,1,.449-.175.686.686,0,0,1,.25.044.473.473,0,0,1,.187.127l.675-.853a.942.942,0,0,0-.345-.242Z" transform="translate(-188.133 -232.493)" fill="#1544ce"/>
          <path id="Path_20470" data-name="Path 20470" d="M206.209,230.34h-1.135v1.493h-.814v.961h.814v2.64h1.135v-2.64h.814v-.961h-.814Z" transform="translate(-192.541 -230.34)" fill="#1544ce"/>
          <path id="Path_20471" data-name="Path 20471" d="M215.32,234.1a1.317,1.317,0,0,0-.707-.191,1.627,1.627,0,0,0-.746.175,1.142,1.142,0,0,0-.262.183v-.282H212.47v3.6h1.135v-2.052a.645.645,0,0,1,.083-.329.57.57,0,0,1,.222-.222.67.67,0,0,1,.326-.079.6.6,0,0,1,.441.175.623.623,0,0,1,.175.457v2.052h1.135V235.28a1.359,1.359,0,0,0-.179-.683,1.425,1.425,0,0,0-.484-.5Z" transform="translate(-197.492 -232.493)" fill="#1544ce"/>
          <path id="Path_20472" data-name="Path 20472" d="M225.424,234.12a1.857,1.857,0,0,0-.941-.23,2,2,0,0,0-.984.246,1.823,1.823,0,0,0-.949,1.639,1.875,1.875,0,0,0,.258.973,1.817,1.817,0,0,0,.715.671,2.209,2.209,0,0,0,1.04.242,2.16,2.16,0,0,0,.83-.155,1.635,1.635,0,0,0,.643-.468l-.623-.623a1.071,1.071,0,0,1-.377.278,1.178,1.178,0,0,1-.48.091.954.954,0,0,1-.5-.123.839.839,0,0,1-.326-.349,1.1,1.1,0,0,1-.064-.159l2.58-.008a2.465,2.465,0,0,0,.04-.25,1.927,1.927,0,0,0-.222-1.135,1.7,1.7,0,0,0-.639-.639Zm-1.4.758a.846.846,0,0,1,.464-.123.794.794,0,0,1,.425.107.673.673,0,0,1,.262.31,1.078,1.078,0,0,1,.06.191h-1.572a1.061,1.061,0,0,1,.056-.143.834.834,0,0,1,.306-.345Z" transform="translate(-203.571 -232.481)" fill="#1544ce"/>
          <path id="Path_20473" data-name="Path 20473" d="M235.9,233.989a1.234,1.234,0,0,0-.457-.079,1.209,1.209,0,0,0-.925.349v-.274H233.38v3.6h1.135v-1.977a.741.741,0,0,1,.167-.524.6.6,0,0,1,.449-.175.686.686,0,0,1,.25.044.473.473,0,0,1,.187.127l.675-.853a.942.942,0,0,0-.345-.242Z" transform="translate(-210.102 -232.493)" fill="#1544ce"/>
        </g>
      </g>
    </g>
    <g id="Group_12807" data-name="Group 12807" transform="translate(-20195.355 -23925.6)">
      <path id="Line_1694-2" data-name="Line 1694" d="M.241,14.966H-.5V0H.241Z" transform="translate(1.823 0)" fill="#1544ce"/>
      <path id="Path_20459-2" data-name="Path 20459" d="M184.592,203.6l-1.7-1.7.524-.524,1.171,1.171,1.167-1.17.525.523Z" transform="translate(-182.896 -194.156)" fill="#1544ce"/>
    </g>
    <g id="Group_12863" data-name="Group 12863" transform="translate(-20257.393 -24105.793)">
      <path id="Path_22352" data-name="Path 22352" d="M.4,2.4V3.777H0V.187H1.328a1.23,1.23,0,0,1,.859.265,1.069,1.069,0,0,1,.288.825.966.966,0,0,1-.659,1.043l.69,1.458H2.065L1.416,2.4Zm.934-.353a.657.657,0,0,0,.731-.755A.659.659,0,0,0,1.328.54H.4v1.51ZM4.846,3.455,5,3.44l.01.306a7.447,7.447,0,0,1-1.012.083A.912.912,0,0,1,3.2,3.5,1.741,1.741,0,0,1,2.967,2.5q0-1.364,1.084-1.364a.992.992,0,0,1,.783.293,1.365,1.365,0,0,1,.259.921l-.021.3H3.362a1.064,1.064,0,0,0,.156.638.636.636,0,0,0,.542.208Q4.446,3.486,4.846,3.455Zm-.14-1.126a1.126,1.126,0,0,0-.153-.674.592.592,0,0,0-.5-.2.638.638,0,0,0-.519.208,1.047,1.047,0,0,0-.179.664ZM7.03,1.52H6.2V2.76a1.674,1.674,0,0,0,.065.586q.065.14.309.14l.462-.031.026.322a3.549,3.549,0,0,1-.529.057.678.678,0,0,1-.56-.2,1.286,1.286,0,0,1-.156-.752V1.52H5.452V1.183h.368V.389H6.2v.794H7.03Zm2.309.446V3.294q.016.192.3.228l-.016.306a.838.838,0,0,1-.617-.208,2.283,2.283,0,0,1-.934.208.7.7,0,0,1-.545-.2.826.826,0,0,1-.187-.581.729.729,0,0,1,.192-.558,1.018,1.018,0,0,1,.6-.22l.815-.078V1.966a.522.522,0,0,0-.114-.379.421.421,0,0,0-.311-.114,7.46,7.46,0,0,0-.861.052L7.5,1.541l-.016-.3A5.228,5.228,0,0,1,8.5,1.131a.871.871,0,0,1,.641.2A.871.871,0,0,1,9.338,1.966ZM7.74,3.025q0,.477.394.477a2.1,2.1,0,0,0,.7-.119l.119-.042V2.485l-.768.073a.5.5,0,0,0-.337.135A.478.478,0,0,0,7.74,3.025Zm2.366.752V1.183H10.5V3.777Zm0-3.18V.145H10.5V.6Zm1.167,3.18V.052h.389V3.777ZM14.2,3.455l.15-.016.01.306a7.447,7.447,0,0,1-1.012.083A.912.912,0,0,1,12.56,3.5,1.741,1.741,0,0,1,12.326,2.5q0-1.364,1.084-1.364a.992.992,0,0,1,.783.293,1.365,1.365,0,0,1,.259.921l-.021.3H12.721a1.064,1.064,0,0,0,.156.638.636.636,0,0,0,.542.208Q13.805,3.486,14.2,3.455Zm-.14-1.126a1.126,1.126,0,0,0-.153-.674.592.592,0,0,0-.5-.2.638.638,0,0,0-.519.208,1.047,1.047,0,0,0-.179.664Zm1,1.447V1.183h.384v.353a2.527,2.527,0,0,1,.949-.41V1.52a2.8,2.8,0,0,0-.454.13,3.008,3.008,0,0,0-.361.156l-.13.067v1.9Zm3.906-2.646a4.482,4.482,0,0,1,.581.062l.125.016-.016.316a6.086,6.086,0,0,0-.612-.047.712.712,0,0,0-.6.21,1.367,1.367,0,0,0-.158.778,1.522,1.522,0,0,0,.148.791.694.694,0,0,0,.615.223l.612-.047.016.322a5.334,5.334,0,0,1-.721.073.982.982,0,0,1-.838-.311,1.811,1.811,0,0,1-.231-1.051,1.646,1.646,0,0,1,.249-1.038A1.026,1.026,0,0,1,18.967,1.131Zm1.681,2.646h-.389V.052h.389V1.328a1.86,1.86,0,0,1,.8-.2.767.767,0,0,1,.7.28,1.979,1.979,0,0,1,.179,1v1.37h-.389V2.418a1.752,1.752,0,0,0-.106-.739.461.461,0,0,0-.449-.2,1.728,1.728,0,0,0-.633.119l-.1.036Zm4.228-1.811V3.294q.016.192.3.228l-.016.306a.838.838,0,0,1-.617-.208,2.283,2.283,0,0,1-.934.208.7.7,0,0,1-.545-.2.826.826,0,0,1-.187-.581.729.729,0,0,1,.192-.558,1.018,1.018,0,0,1,.6-.22l.814-.078V1.966a.522.522,0,0,0-.114-.379.421.421,0,0,0-.311-.114,7.46,7.46,0,0,0-.861.052l-.161.016-.016-.3a5.228,5.228,0,0,1,1.012-.114.871.871,0,0,1,.641.2A.871.871,0,0,1,24.876,1.966Zm-1.6,1.058q0,.477.394.477a2.1,2.1,0,0,0,.7-.119l.119-.042V2.485l-.768.073a.5.5,0,0,0-.337.135A.478.478,0,0,0,23.278,3.025Zm2.755.752h-.389V1.183h.384v.182a1.659,1.659,0,0,1,.8-.233.767.767,0,0,1,.7.28,1.979,1.979,0,0,1,.179,1v1.37h-.384V2.418a1.752,1.752,0,0,0-.106-.739.467.467,0,0,0-.454-.2,1.355,1.355,0,0,0-.35.049,1.749,1.749,0,0,0-.283.1l-.1.047Zm2.786,0H28.43V1.183h.384v.182a1.659,1.659,0,0,1,.8-.233.767.767,0,0,1,.7.28,1.979,1.979,0,0,1,.179,1v1.37h-.384V2.418A1.752,1.752,0,0,0,30,1.678a.467.467,0,0,0-.454-.2,1.355,1.355,0,0,0-.35.049,1.749,1.749,0,0,0-.283.1l-.1.047Zm4.161-.322.15-.016.01.306a7.447,7.447,0,0,1-1.012.083.912.912,0,0,1-.794-.324A1.741,1.741,0,0,1,31.1,2.5q0-1.364,1.084-1.364a.992.992,0,0,1,.783.293,1.365,1.365,0,0,1,.259.921l-.021.3H31.5a1.064,1.064,0,0,0,.156.638.636.636,0,0,0,.542.208Q32.58,3.486,32.979,3.455Zm-.14-1.126a1.126,1.126,0,0,0-.153-.674.592.592,0,0,0-.5-.2.638.638,0,0,0-.519.208,1.047,1.047,0,0,0-.179.664Zm1.027,1.447V.052h.389V3.777ZM36.673,1.52V3.777h-.389V1.52h-.327V1.183h.327V.949A1.287,1.287,0,0,1,36.44.2a.652.652,0,0,1,.545-.2l.524.036L37.5.358q-.291-.01-.48-.01a.3.3,0,0,0-.27.125.983.983,0,0,0-.08.482v.228h.752V1.52Zm1.219,2.257V1.183h.389V3.777Zm0-3.18V.145h.389V.6Zm1.525,3.18h-.389V1.183h.384v.182a1.659,1.659,0,0,1,.8-.233.767.767,0,0,1,.7.28,1.979,1.979,0,0,1,.179,1v1.37h-.384V2.418a1.752,1.752,0,0,0-.106-.739.467.467,0,0,0-.454-.2,1.355,1.355,0,0,0-.35.049,1.749,1.749,0,0,0-.283.1l-.1.047Zm4.228-1.811V3.294q.016.192.3.228l-.016.306a.838.838,0,0,1-.617-.208,2.283,2.283,0,0,1-.934.208.7.7,0,0,1-.545-.2.826.826,0,0,1-.187-.581.729.729,0,0,1,.192-.558,1.018,1.018,0,0,1,.6-.22l.815-.078V1.966a.522.522,0,0,0-.114-.379.421.421,0,0,0-.311-.114,7.46,7.46,0,0,0-.861.052l-.161.016-.016-.3a5.228,5.228,0,0,1,1.012-.114.871.871,0,0,1,.641.2A.871.871,0,0,1,43.646,1.966Zm-1.6,1.058q0,.477.394.477a2.1,2.1,0,0,0,.7-.119l.119-.042V2.485l-.768.073a.5.5,0,0,0-.337.135A.478.478,0,0,0,42.048,3.025Zm2.755.752h-.389V1.183H44.8v.182a1.659,1.659,0,0,1,.8-.233.767.767,0,0,1,.7.28,1.979,1.979,0,0,1,.179,1v1.37h-.384V2.418a1.752,1.752,0,0,0-.106-.739.467.467,0,0,0-.454-.2,1.355,1.355,0,0,0-.35.049,1.749,1.749,0,0,0-.283.1l-.1.047ZM48.17,1.131a4.482,4.482,0,0,1,.581.062l.125.016-.016.316a6.086,6.086,0,0,0-.612-.047.712.712,0,0,0-.6.21,1.367,1.367,0,0,0-.158.778,1.522,1.522,0,0,0,.148.791.694.694,0,0,0,.615.223l.612-.047.016.322a5.334,5.334,0,0,1-.721.073.982.982,0,0,1-.838-.311,1.811,1.811,0,0,1-.231-1.051,1.646,1.646,0,0,1,.249-1.038A1.026,1.026,0,0,1,48.17,1.131Zm3.025,2.324.15-.016.01.306a7.447,7.447,0,0,1-1.012.083A.912.912,0,0,1,49.55,3.5,1.741,1.741,0,0,1,49.316,2.5q0-1.364,1.084-1.364a.992.992,0,0,1,.783.293,1.365,1.365,0,0,1,.259.921l-.021.3H49.71a1.064,1.064,0,0,0,.156.638.636.636,0,0,0,.542.208Q50.795,3.486,51.194,3.455Zm-.14-1.126a1.126,1.126,0,0,0-.153-.674.592.592,0,0,0-.5-.2.638.638,0,0,0-.519.208,1.047,1.047,0,0,0-.179.664Z" transform="translate(0.803 76.637) rotate(-90)" fill="#222"/>
      <path id="Path_22354" data-name="Path 22354" d="M.4,3.86V3.414H1.463a.631.631,0,0,0,.475-.174.638.638,0,0,0,.169-.464.633.633,0,0,0-.166-.464.64.64,0,0,0-.477-.169H.4V1.811H1.39a2.117,2.117,0,0,1,.641.088.863.863,0,0,1,.436.293.891.891,0,0,1,.158.558v.073a1.1,1.1,0,0,1-.135.563.861.861,0,0,1-.41.353,1.706,1.706,0,0,1-.69.122Zm-.4,0V.031H.508V3.86ZM.4,2.049V1.717h.918A.6.6,0,0,0,1.8,1.543.646.646,0,0,0,1.951,1.1.654.654,0,0,0,1.8.651.6.6,0,0,0,1.323.477H.4V.031h.83a1.4,1.4,0,0,1,.929.262.939.939,0,0,1,.306.755v.073a.892.892,0,0,1-.156.553.835.835,0,0,1-.433.291,2.2,2.2,0,0,1-.646.086Zm4.01,1.873A.925.925,0,0,1,3.657,3.6a1.429,1.429,0,0,1-.265-.929V1.064h.5V2.77a.709.709,0,0,0,.176.511.63.63,0,0,0,.477.184.683.683,0,0,0,.508-.2.745.745,0,0,0,.2-.547V1.064h.5V3.839H5.354V2.651h.062a1.934,1.934,0,0,1-.109.693.894.894,0,0,1-.324.431.946.946,0,0,1-.547.148Zm2.111,1V4.472h.4a.882.882,0,0,0,.3-.044.441.441,0,0,0,.2-.148.849.849,0,0,0,.132-.275L8.43,1.069h.488L7.995,4.135a1.21,1.21,0,0,1-.233.449.887.887,0,0,1-.366.254,1.427,1.427,0,0,1-.5.08Zm.846-1.141V3.362h.6v.415Zm-.052,0L6.329,1.069h.508l.949,2.708Zm3.357.156a1.462,1.462,0,0,1-.628-.125,1.2,1.2,0,0,1-.431-.329,1.387,1.387,0,0,1-.246-.459,1.71,1.71,0,0,1-.08-.519V2.407a1.727,1.727,0,0,1,.08-.524,1.387,1.387,0,0,1,.246-.459,1.193,1.193,0,0,1,.423-.327,1.4,1.4,0,0,1,.6-.122,1.32,1.32,0,0,1,.744.195,1.2,1.2,0,0,1,.436.5,1.528,1.528,0,0,1,.143.654v.223H9.509V2.174h2.1l-.114.2a1.278,1.278,0,0,0-.093-.511.731.731,0,0,0-.28-.335.862.862,0,0,0-.472-.119.841.841,0,0,0-.49.135.812.812,0,0,0-.291.368,1.411,1.411,0,0,0-.1.54,1.4,1.4,0,0,0,.1.532.808.808,0,0,0,.3.374,1.037,1.037,0,0,0,1.045-.008.564.564,0,0,0,.246-.337h.467a1.082,1.082,0,0,1-.659.809A1.5,1.5,0,0,1,10.677,3.932Zm2-.093V1.069h.394V2.21h-.021a1.261,1.261,0,0,1,.267-.89,1.052,1.052,0,0,1,.8-.283h.093v.446h-.176a.869.869,0,0,0-.638.22.854.854,0,0,0-.223.636v1.5Zm4.389.031a1.474,1.474,0,0,1-.537-.088.67.67,0,0,1-.348-.3,1.186,1.186,0,0,1-.122-.584V.228h.477V2.957A.424.424,0,0,0,17,3.424h.488V3.87ZM15.579,1.442V1.069h1.909v.374Zm2.462,2.4V1.069h.394V2.21h-.021a1.261,1.261,0,0,1,.267-.89,1.052,1.052,0,0,1,.8-.283h.093v.446H19.4a.869.869,0,0,0-.638.22.854.854,0,0,0-.223.636v1.5Zm3.792,0v-.83H21.75v-.96a.578.578,0,0,0-.148-.431.593.593,0,0,0-.433-.145q-.161,0-.332.005l-.327.01q-.156.005-.27.016V1.069q.114-.01.241-.018t.262-.01l.259,0a2.01,2.01,0,0,1,.7.1.739.739,0,0,1,.4.329,1.251,1.251,0,0,1,.13.617V3.839Zm-.908.073a1.25,1.25,0,0,1-.537-.106.786.786,0,0,1-.348-.309.928.928,0,0,1-.122-.488.865.865,0,0,1,.132-.493.81.81,0,0,1,.386-.3,1.656,1.656,0,0,1,.612-.1H21.8V2.49h-.773a.666.666,0,0,0-.462.145.481.481,0,0,0-.161.374.465.465,0,0,0,.161.368.682.682,0,0,0,.462.14.893.893,0,0,0,.337-.065.591.591,0,0,0,.267-.218.787.787,0,0,0,.117-.423l.135.2a1.177,1.177,0,0,1-.143.5.767.767,0,0,1-.322.3A1.087,1.087,0,0,1,20.925,3.912Zm3.372.021a1.344,1.344,0,0,1-.545-.109,1.3,1.3,0,0,1-.433-.306,1.415,1.415,0,0,1-.285-.457,1.529,1.529,0,0,1-.1-.56V2.407a1.55,1.55,0,0,1,.1-.555,1.425,1.425,0,0,1,.278-.457,1.282,1.282,0,0,1,.425-.309,1.312,1.312,0,0,1,.547-.112,1.249,1.249,0,0,1,.576.132,1.046,1.046,0,0,1,.425.412,1.557,1.557,0,0,1,.187.726l-.208-.332V.052h.5V3.839h-.394V2.61h.145a1.611,1.611,0,0,1-.2.765,1.077,1.077,0,0,1-.444.425A1.274,1.274,0,0,1,24.3,3.932Zm.067-.436a.942.942,0,0,0,.462-.114.856.856,0,0,0,.332-.329.993.993,0,0,0,.125-.506V2.309a.885.885,0,0,0-.127-.485.846.846,0,0,0-.337-.306,1,1,0,0,0-.459-.106.9.9,0,0,0-.485.13.877.877,0,0,0-.327.363,1.216,1.216,0,0,0-.117.55,1.21,1.21,0,0,0,.119.553.867.867,0,0,0,.332.363A.922.922,0,0,0,24.365,3.5Zm3.528.436a1.462,1.462,0,0,1-.628-.125,1.2,1.2,0,0,1-.431-.329,1.387,1.387,0,0,1-.246-.459,1.71,1.71,0,0,1-.08-.519V2.407a1.727,1.727,0,0,1,.08-.524,1.387,1.387,0,0,1,.246-.459,1.193,1.193,0,0,1,.423-.327,1.4,1.4,0,0,1,.6-.122,1.32,1.32,0,0,1,.744.195,1.2,1.2,0,0,1,.436.5,1.528,1.528,0,0,1,.143.654v.223H26.726V2.174h2.1l-.114.2a1.278,1.278,0,0,0-.093-.511.731.731,0,0,0-.28-.335.862.862,0,0,0-.472-.119.841.841,0,0,0-.49.135.812.812,0,0,0-.291.368,1.411,1.411,0,0,0-.1.54,1.4,1.4,0,0,0,.1.532.808.808,0,0,0,.3.374,1.037,1.037,0,0,0,1.045-.008.564.564,0,0,0,.246-.337h.467a1.082,1.082,0,0,1-.659.809A1.5,1.5,0,0,1,27.893,3.932Zm3.253-.093V.9a.867.867,0,0,1,.244-.68A1.043,1.043,0,0,1,32.105,0h.311V.415h-.394a.394.394,0,0,0-.3.106.4.4,0,0,0-.1.293V3.839Zm-.384-2.4V1.069h1.6v.374Zm2.288,2.4V1.069h.5v2.77Zm-.4-2.376V1.069h.9v.394Zm.545-.84a.317.317,0,0,1-.246-.088.318.318,0,0,1-.08-.223.318.318,0,0,1,.08-.223.388.388,0,0,1,.493,0,.318.318,0,0,1,.08.223.318.318,0,0,1-.08.223A.317.317,0,0,1,33.19.623Zm1.323,3.216V1.069h.394V2.257h-.062a1.893,1.893,0,0,1,.112-.693.88.88,0,0,1,.34-.431,1.04,1.04,0,0,1,.576-.148h.021a.917.917,0,0,1,.776.327,1.524,1.524,0,0,1,.252.944V3.839h-.5V2.153a.726.726,0,0,0-.182-.516.648.648,0,0,0-.5-.195.716.716,0,0,0-.529.2.729.729,0,0,0-.2.54V3.839Zm5,0v-.83h-.083v-.96a.578.578,0,0,0-.148-.431.593.593,0,0,0-.433-.145q-.161,0-.332.005l-.327.01q-.156.005-.27.016V1.069q.114-.01.241-.018t.262-.01l.259,0a2.01,2.01,0,0,1,.7.1.739.739,0,0,1,.4.329,1.251,1.251,0,0,1,.13.617V3.839Zm-.908.073a1.25,1.25,0,0,1-.537-.106.786.786,0,0,1-.348-.309.928.928,0,0,1-.122-.488.865.865,0,0,1,.132-.493.81.81,0,0,1,.386-.3,1.656,1.656,0,0,1,.612-.1h.752V2.49H38.7a.666.666,0,0,0-.462.145.48.48,0,0,0-.161.374.465.465,0,0,0,.161.368.682.682,0,0,0,.462.14.893.893,0,0,0,.337-.065.591.591,0,0,0,.267-.218.787.787,0,0,0,.117-.423l.135.2a1.177,1.177,0,0,1-.143.5.767.767,0,0,1-.322.3A1.087,1.087,0,0,1,38.6,3.912Zm2.215-.073V1.069h.394V2.257h-.062a1.893,1.893,0,0,1,.112-.693.88.88,0,0,1,.34-.431,1.04,1.04,0,0,1,.576-.148H42.2a.917.917,0,0,1,.776.327,1.524,1.524,0,0,1,.252.944V3.839h-.5V2.153a.726.726,0,0,0-.182-.516.648.648,0,0,0-.5-.195.716.716,0,0,0-.529.2.729.729,0,0,0-.2.54V3.839Zm4.508.093a1.432,1.432,0,0,1-.62-.125,1.231,1.231,0,0,1-.433-.335,1.475,1.475,0,0,1-.257-.464,1.585,1.585,0,0,1-.086-.508V2.407a1.615,1.615,0,0,1,.086-.519,1.389,1.389,0,0,1,.259-.459,1.293,1.293,0,0,1,.433-.329,1.388,1.388,0,0,1,.607-.125,1.459,1.459,0,0,1,.625.13,1.118,1.118,0,0,1,.446.366,1.056,1.056,0,0,1,.189.558H46.1a.678.678,0,0,0-.239-.433.808.808,0,0,0-.545-.174.853.853,0,0,0-.493.135.822.822,0,0,0-.3.368,1.349,1.349,0,0,0-.1.529,1.34,1.34,0,0,0,.1.521.83.83,0,0,0,.3.374.863.863,0,0,0,.5.137.918.918,0,0,0,.4-.083A.733.733,0,0,0,46,3.18a.65.65,0,0,0,.125-.316h.477a1.02,1.02,0,0,1-.189.565,1.163,1.163,0,0,1-.457.371A1.482,1.482,0,0,1,45.324,3.932Zm3.133,0a1.462,1.462,0,0,1-.628-.125,1.2,1.2,0,0,1-.431-.329,1.387,1.387,0,0,1-.246-.459,1.71,1.71,0,0,1-.08-.519V2.407a1.727,1.727,0,0,1,.08-.524,1.387,1.387,0,0,1,.246-.459,1.193,1.193,0,0,1,.423-.327,1.4,1.4,0,0,1,.6-.122,1.32,1.32,0,0,1,.744.195,1.2,1.2,0,0,1,.436.5,1.528,1.528,0,0,1,.143.654v.223H47.29V2.174h2.1l-.114.2a1.278,1.278,0,0,0-.093-.511.731.731,0,0,0-.28-.335.862.862,0,0,0-.472-.119.841.841,0,0,0-.49.135.812.812,0,0,0-.291.368,1.411,1.411,0,0,0-.1.54,1.4,1.4,0,0,0,.1.532.808.808,0,0,0,.3.374,1.037,1.037,0,0,0,1.045-.008.564.564,0,0,0,.246-.337H49.7a1.082,1.082,0,0,1-.659.809A1.5,1.5,0,0,1,48.458,3.932Z" transform="translate(0 231.424) rotate(-90)" fill="#222"/>
      <path id="Path_20411" data-name="Path 20411" d="M53.841,172.1H53.1V77.018a6.54,6.54,0,0,1,6.432-6.628H84.359v.741H59.532a5.8,5.8,0,0,0-5.691,5.887Z" transform="translate(-43.55 -70.39)" fill="#d6d6d6"/>
      <path id="Path_21675" data-name="Path 21675" d="M30.759,69.33H5.932A6.54,6.54,0,0,1-.5,62.7V-22H.241V62.7a5.8,5.8,0,0,0,5.691,5.887H30.759Z" transform="translate(10.05 183.196)" fill="#d6d6d6"/>
      <path id="Path_20413" data-name="Path 20413" d="M317.96,702.642l-.524-.524,1.7-1.7,1.691,1.7-.525.523-1.167-1.17Z" transform="translate(-309.209 -650.921)" fill="#d6d6d6"/>
      <path id="Path_21676" data-name="Path 21676" d="M.524,2.219,0,1.7,1.7,0,3.387,1.7l-.525.523L1.695,1.049Z" transform="translate(11.614 207.622) rotate(180)" fill="#d6d6d6"/>
    </g>
    <g id="Group_12859" data-name="Group 12859" transform="translate(-20212.879 -24000.295)">
      <g id="Group_12857" data-name="Group 12857" clip-path="url(#clip-path)">
        <path id="Path_21677" data-name="Path 21677" d="M17.529,19.56H7.648a17.247,17.247,0,0,0-.4-4.436,17.471,17.471,0,0,0,6.593-.739,16.406,16.406,0,0,1,.338,2.384l.087,1.058,1-.36c.3-.108,2.95-1.113,3.485-3.013a5,5,0,0,0-.779-3.654l-.579-1-.745.882c-.114.135-.234.266-.357.389-2.718,2.718-7.649,2.545-9.366,2.39-.155-1.718-.327-6.649,2.39-9.366a7.065,7.065,0,0,1,2-1.377,13.37,13.37,0,0,0,4.168,5.252l.932-1.332a11.661,11.661,0,0,1-3.567-4.486,17.043,17.043,0,0,1,5.838-.447c.036.385.073.933.074,1.579a16.228,16.228,0,0,1-.528,4.2l1.568.43a17.894,17.894,0,0,0,.586-4.635A16.554,16.554,0,0,0,20.213.841l-.1-.58L19.538.17C19.271.129,13.718-.7,9.726,1.728a6.1,6.1,0,0,0-5.068-.194l-.522.205.007.561a14.535,14.535,0,0,1-.605,4.594l-.264.587L5.4,9.107a19.549,19.549,0,0,0-.124,4.181,21.175,21.175,0,0,0-4.543.13.847.847,0,0,0-.49,1.429l5.926,6.09a.841.841,0,0,0,.6.248H17.529a1.248,1.248,0,0,1,1.245,1.333,1.288,1.288,0,0,1-1.316,1.164H6.741A6.775,6.775,0,0,0,0,30.293,6.616,6.616,0,0,0,1.929,35.08a6.975,6.975,0,0,0,4.946,2.085h11.8V31.253l-5.036,2.139a2.877,2.877,0,0,0-1.911-.727H8.553a1.268,1.268,0,0,1,0-2.535H11.33a5.645,5.645,0,0,0,5.577-4.824h.552A2.916,2.916,0,0,0,20.4,22.623a2.849,2.849,0,0,0-.77-2.154,2.884,2.884,0,0,0-2.1-.909m-.5-6.958a2.426,2.426,0,0,1,.154,1.413,3.086,3.086,0,0,1-1.5,1.466,9.06,9.06,0,0,0-.345-1.733,8.744,8.744,0,0,0,1.7-1.146M5.247,6.945a16.757,16.757,0,0,0,.517-4.069,4.686,4.686,0,0,1,2.479,0c-.027.026-.055.05-.082.077a9.7,9.7,0,0,0-2.4,4.388ZM2.535,14.876a20.241,20.241,0,0,1,3,.069,17.565,17.565,0,0,1,.5,3.531ZM17.052,35.539H14.623a2.874,2.874,0,0,0-.107-.752l2.536-1.077ZM11.33,28.5H9.567a2.652,2.652,0,0,1-.61-1.68l-.813,0-.813,0a4.279,4.279,0,0,0,.4,1.793,2.892,2.892,0,0,0,.817,5.667h3.178A1.269,1.269,0,0,1,13,35.539H6.875a5.34,5.34,0,0,1-3.786-1.6,5.006,5.006,0,0,1-1.463-3.618,5.141,5.141,0,0,1,5.115-5.017h8.517a4.018,4.018,0,0,1-3.928,3.2" transform="translate(0 0)" fill="#1544ce" stroke="#fff" stroke-width="0.5"/>
        <path id="Path_21678" data-name="Path 21678" d="M104.235,85.348l-2.861-2.031-.466.316a5.471,5.471,0,0,1-6.569.049l-.54-.451-3.376,3.027,1.085,1.21,2.379-2.133a7.344,7.344,0,0,0,1.938.815,6.963,6.963,0,0,0,.953.175V97.908H98.4V86.315a7.576,7.576,0,0,0,2.934-1.031l1.957,1.389a3.832,3.832,0,0,1,1.613,3.142l-.03,2.959,1.625.016.03-2.963a5.462,5.462,0,0,0-2.3-4.48" transform="translate(-69.428 -63.905)" fill="#1544ce" stroke="#fff" stroke-width="0.5"/>
        <rect id="Rectangle_9735" data-name="Rectangle 9735" width="1.625" height="6.314" transform="translate(23.482 25.799)" fill="#1544ce" stroke="#fff" stroke-width="0.5"/>
        <rect id="Rectangle_9736" data-name="Rectangle 9736" width="1.625" height="6.156" transform="translate(31.134 25.799)" fill="#1544ce" stroke="#fff" stroke-width="0.5"/>
        <path id="Path_21679" data-name="Path 21679" d="M95.5,22.546v.736a5.47,5.47,0,0,0,3.28,5.01,4.739,4.739,0,0,0,2.191.457,5.24,5.24,0,0,0,2.15-.447,5.466,5.466,0,0,0,3.3-5.018V21.26a1.345,1.345,0,0,0,.7-1.178v-3.2a1.979,1.979,0,0,0-.869-1.668l.8-1.188a1.654,1.654,0,0,0-1.374-2.574H104a1.649,1.649,0,0,0-1.541,2.245l-.607-.212a1.647,1.647,0,0,0-1.365.13l-.658.381-3.77,1.191a1.809,1.809,0,0,0-1.226,1.695v4.472a1.421,1.421,0,0,0,.672,1.2m9.886-6.017a.42.42,0,0,1,.152.349v2.644l-4.211-4.552h0c.727.252,3.17,1.11,4.056,1.557m-8.307,5.987.046-.033,5.9-3.353,1.649,1.782a1.366,1.366,0,0,0,.168.179v2.194a3.881,3.881,0,1,1-7.763,0Zm-.673-5.637a.228.228,0,0,1,.124-.191l.326-.1.025-.009h0l2.926-.924,2.116,2.287-5.517,3.136Zm7.589-3.8h1.673a.028.028,0,0,1,.024.044l-.866,1.294a.028.028,0,0,1-.023.013.029.029,0,0,1-.024-.013l-.807-1.294a.028.028,0,0,1,.024-.043" transform="translate(-72.812 -8.791)" fill="#1544ce" stroke="#fff" stroke-width="0.5"/>
      </g>
    </g>
    <g id="Group_12862" data-name="Group 12862" transform="translate(-20215.102 -23902.723)">
      <g id="Group_12861" data-name="Group 12861" transform="translate(0 0)" clip-path="url(#clip-path-2)">
        <path id="Path_21681" data-name="Path 21681" d="M3.925,4.032l-.472-.47a2.575,2.575,0,0,0-.759.776,1.231,1.231,0,0,0-.409-.31,1.435,1.435,0,0,0-.629-.134,1.586,1.586,0,0,0-.85.23,1.63,1.63,0,0,0-.59.637A1.929,1.929,0,0,0,0,5.683,1.889,1.889,0,0,0,.217,6.6a1.687,1.687,0,0,0,.593.637,1.556,1.556,0,0,0,.846.237,1.459,1.459,0,0,0,.636-.134,1.206,1.206,0,0,0,.4-.307,2.578,2.578,0,0,0,.757.774l.471-.469a2.755,2.755,0,0,1,0-3.3M2.441,6.263a.727.727,0,0,1-.055.053.738.738,0,0,1-.5.173.763.763,0,0,1-.395-.1A.745.745,0,0,1,1.212,6.1a.893.893,0,0,1,0-.834.751.751,0,0,1,.277-.286.764.764,0,0,1,.395-.1.8.8,0,0,1,.405.1.721.721,0,0,1,.1.069.672.672,0,0,1,.172.214.894.894,0,0,1,.092.414.829.829,0,0,1-.21.587" transform="translate(0 -2.522)" fill="#1544ce"/>
        <path id="Path_21682" data-name="Path 21682" d="M30.539,8.456a1.769,1.769,0,0,1-.842-.2,1.451,1.451,0,0,1-.579-.541,1.5,1.5,0,0,1-.206-.789V4.941h1.095V6.914a.69.69,0,0,0,.064.307.462.462,0,0,0,.185.2.551.551,0,0,0,.284.071.482.482,0,0,0,.38-.155.613.613,0,0,0,.139-.424V4.941h1.095V6.928a1.536,1.536,0,0,1-.2.8,1.428,1.428,0,0,1-.565.538,1.767,1.767,0,0,1-.846.194" transform="translate(-20.468 -3.498)" fill="#1544ce"/>
        <path id="Path_21683" data-name="Path 21683" d="M17.107,4.771V5.05a1.234,1.234,0,0,0-.317-.215,1.438,1.438,0,0,0-.629-.134,1.583,1.583,0,0,0-1.443.866,1.96,1.96,0,0,0-.213.923,1.915,1.915,0,0,0,.213.915,1.672,1.672,0,0,0,.587.637,1.563,1.563,0,0,0,.856.237,1.448,1.448,0,0,0,.626-.134,1.23,1.23,0,0,0,.32-.216V9.658h1.08V4.771ZM16.382,7.3a.785.785,0,0,1-.4-.1.691.691,0,0,1-.274-.287.887.887,0,0,1-.1-.417.862.862,0,0,1,.1-.417.728.728,0,0,1,.274-.287.778.778,0,0,1,.4-.1.759.759,0,0,1,.4.1.739.739,0,0,1,.27.283.839.839,0,0,1,.1.413.812.812,0,0,1-.217.587.737.737,0,0,1-.558.226" transform="translate(-10.269 -3.328)" fill="#1544ce"/>
        <path id="Path_21684" data-name="Path 21684" d="M44.416,5.08a1.258,1.258,0,0,0-.323-.22,1.44,1.44,0,0,0-.629-.134,1.586,1.586,0,0,0-.85.23,1.633,1.633,0,0,0-.59.637,1.931,1.931,0,0,0-.217.923,1.887,1.887,0,0,0,.217.915,1.688,1.688,0,0,0,.594.637,1.556,1.556,0,0,0,.846.237,1.457,1.457,0,0,0,.636-.134,1.235,1.235,0,0,0,.317-.215v.279h1.073V4.8H44.416Zm-.725,2.24a.764.764,0,0,1-.394-.1.745.745,0,0,1-.277-.287.9.9,0,0,1,0-.834A.751.751,0,0,1,43.3,5.81a.764.764,0,0,1,.394-.1.8.8,0,0,1,.405.1.677.677,0,0,1,.27.283.893.893,0,0,1,.093.413.828.828,0,0,1-.21.587.723.723,0,0,1-.558.226" transform="translate(-29.597 -3.345)" fill="#1544ce"/>
        <path id="Path_21685" data-name="Path 21685" d="M60.391,4.088a1.916,1.916,0,0,0,.216-.919,1.916,1.916,0,0,0-.216-.919,1.644,1.644,0,0,0-.594-.637,1.616,1.616,0,0,0-.867-.233,1.493,1.493,0,0,0-.636.134,1.311,1.311,0,0,0-.276.17V0H56.95V4.887h1.082V4.65a1.347,1.347,0,0,0,.262.167,1.43,1.43,0,0,0,.636.141,1.616,1.616,0,0,0,.867-.233,1.644,1.644,0,0,0,.594-.637m-.881-.919a.881.881,0,0,1-.1.424.725.725,0,0,1-.272.286.83.83,0,0,1-.8,0,.723.723,0,0,1-.272-.286.881.881,0,0,1-.1-.424.892.892,0,0,1,.1-.417.716.716,0,0,1,.272-.29.754.754,0,0,1,.4-.106.764.764,0,0,1,.407.106.75.75,0,0,1,.272.29.866.866,0,0,1,.1.417" transform="translate(-40.318 0)" fill="#1544ce"/>
        <path id="Path_21686" data-name="Path 21686" d="M73.229,5.078a1.255,1.255,0,0,0-.322-.22,1.426,1.426,0,0,0-.626-.134,1.554,1.554,0,0,0-.845.233,1.663,1.663,0,0,0-.587.636,1.918,1.918,0,0,0-.216.92,1.916,1.916,0,0,0,.216.919,1.662,1.662,0,0,0,.587.637,1.554,1.554,0,0,0,.845.233,1.449,1.449,0,0,0,.63-.134,1.222,1.222,0,0,0,.318-.216v.279H74.29V4.794H73.229ZM72.5,7.326a.754.754,0,0,1-.4-.106.741.741,0,0,1-.276-.29.866.866,0,0,1-.1-.417.857.857,0,0,1,.1-.424.748.748,0,0,1,.276-.286.83.83,0,0,1,.8,0,.7.7,0,0,1,.269.286.908.908,0,0,1,.1.424.826.826,0,0,1-.212.584.724.724,0,0,1-.559.23" transform="translate(-50.005 -3.344)" fill="#1544ce"/>
        <path id="Path_21687" data-name="Path 21687" d="M99.428,5.078a1.255,1.255,0,0,0-.322-.22,1.426,1.426,0,0,0-.626-.134,1.554,1.554,0,0,0-.845.233,1.663,1.663,0,0,0-.587.636,1.918,1.918,0,0,0-.216.92,1.916,1.916,0,0,0,.216.919,1.662,1.662,0,0,0,.587.637,1.554,1.554,0,0,0,.845.233,1.449,1.449,0,0,0,.63-.134,1.222,1.222,0,0,0,.318-.216v.279h1.061V4.794H99.428ZM98.7,7.326a.754.754,0,0,1-.4-.106.741.741,0,0,1-.276-.29.866.866,0,0,1-.1-.417.857.857,0,0,1,.1-.424.748.748,0,0,1,.276-.286.83.83,0,0,1,.8,0,.7.7,0,0,1,.269.286.908.908,0,0,1,.1.424.826.826,0,0,1-.212.584.724.724,0,0,1-.559.23" transform="translate(-68.553 -3.344)" fill="#1544ce"/>
        <path id="Path_21688" data-name="Path 21688" d="M85.38,5.866h1.38l-1.507,1.9V8.4h3V7.493h-1.47L88.3,5.59v-.63H85.38Z" transform="translate(-60.355 -3.512)" fill="#1544ce"/>
        <path id="Path_21689" data-name="Path 21689" d="M138.725,2.448h.207l-.3-.372a.311.311,0,0,0,.1-.028.244.244,0,0,0,.1-.089.251.251,0,0,0-.1-.359.319.319,0,0,0-.149-.033h-.346v.881h.17V2.081h.03Zm-.311-.742h.159a.129.129,0,0,1,.1.034.12.12,0,0,1,.034.087.114.114,0,0,1-.034.087.136.136,0,0,1-.1.032h-.158Z" transform="translate(-97.871 -1.109)" fill="#1544ce"/>
        <path id="Path_21690" data-name="Path 21690" d="M137.026,1.838a.919.919,0,1,1,.919-.919.92.92,0,0,1-.919.919m0-1.67a.751.751,0,1,0,.752.751.752.752,0,0,0-.752-.751" transform="translate(-96.358 0)" fill="#1544ce"/>
        <path id="Path_21691" data-name="Path 21691" d="M114.484,5.078a1.254,1.254,0,0,0-.322-.22,1.426,1.426,0,0,0-.626-.134,1.554,1.554,0,0,0-.845.233,1.663,1.663,0,0,0-.587.636,1.918,1.918,0,0,0-.216.92,1.916,1.916,0,0,0,.216.919,1.662,1.662,0,0,0,.587.637,1.554,1.554,0,0,0,.845.233,1.448,1.448,0,0,0,.63-.134,1.221,1.221,0,0,0,.318-.216v.279h1.061V4.794h-1.061Zm-.729,2.248a.754.754,0,0,1-.4-.106.741.741,0,0,1-.276-.29.866.866,0,0,1-.1-.417.857.857,0,0,1,.1-.424.748.748,0,0,1,.276-.286.83.83,0,0,1,.8,0,.7.7,0,0,1,.269.286.908.908,0,0,1,.1.424.826.826,0,0,1-.212.584.724.724,0,0,1-.559.23" transform="translate(-79.212 -3.344)" fill="#1544ce"/>
        <path id="Path_21692" data-name="Path 21692" d="M129.346,4.8a1.179,1.179,0,0,0-.435-.074,1.166,1.166,0,0,0-.884.332V4.794h-1.082V8.231h1.082V6.343a.7.7,0,0,1,.159-.5.565.565,0,0,1,.428-.166.643.643,0,0,1,.241.043.469.469,0,0,1,.177.12l.644-.813a.879.879,0,0,0-.329-.23" transform="translate(-89.871 -3.344)" fill="#1544ce"/>
      </g>
    </g>
    <g id="Group_13281" data-name="Group 13281" transform="translate(-20212.605 -23865.561)">
      <g id="Group_13258" data-name="Group 13258" transform="translate(0 0)" clip-path="url(#clip-path-3)">
        <path id="Path_22241" data-name="Path 22241" d="M22.146,33.423c.171-.085.342-.179.512-.268l-.549-.96-.041-.01a3.734,3.734,0,0,1-2.086.636,4.935,4.935,0,0,1-2.127-.529l-.069-.033v-20.3h9.056v2.619h1.11V10.845H25.919v-1.6h0V8.133H23.105V5.978h0V5.421H19.141V1.11h0V0H15.317V1.11h0V5.421H11.353v.558h0V8.133H8.539v2.712H6.506v6.4L3.183,19.263l0,0-.361.219.094.3.027.092a.08.08,0,0,1,0,.01l.357,1.2.054.181h0c2.854,9.6,3.091,10.4,3.11,10.467v.008l-.118.033-.118.033s-.134-.13-1.208-.272a5.22,5.22,0,0,0-.61-.037A6.5,6.5,0,0,0,.19,33.484a.555.555,0,0,0-.053.785.543.543,0,0,0,.378.183.552.552,0,0,0,.407-.13C2.325,33.1,4.037,32,6.107,33.028c2.045,1.025,3.721,1.114,5.282.293s3.005-1.444,4.648-.663l1.688.805a5.023,5.023,0,0,0,4.42-.041M16.432,1.11h1.6V5.421h-1.6ZM12.467,6.535H22v1.6H12.467ZM7.62,11.956h7.621L7.62,16.575Zm9.056,19.58v0h-.244a.075.075,0,0,0,.02.057,4.763,4.763,0,0,0-1.017-.309,5.141,5.141,0,0,0-3.436.46l-.366.2a6.045,6.045,0,0,1-2.086.817,4.125,4.125,0,0,1-.5.028,4.015,4.015,0,0,1-1.106-.155l-.061-.02-.02-.061L4.391,20.878l-.263-.888,12.548-7.6ZM9.653,9.243H24.809v1.6H9.653Z" transform="translate(0 0)" fill="#1544ce"/>
        <path id="Path_22242" data-name="Path 22242" d="M64.252,59.742l-2.265-1.606L61.95,58A1.546,1.546,0,0,0,60.9,56.924l-2.274-.69c.093-.042.189-.089.287-.142a5.994,5.994,0,0,0,2.862-3.424h0a.59.59,0,0,0,.085.008,1.756,1.756,0,0,0,1.318-.613,2.2,2.2,0,0,0,.544-1.47,2.236,2.236,0,0,0-.349-1.2l.346-3.484h0c0-.015,0-.031,0-.046a4.28,4.28,0,0,0-3.564-4.208A2.843,2.843,0,0,0,57.9,40.312a4.491,4.491,0,0,0-4.091,1.29l-.049.007a4.55,4.55,0,0,0-2.226.9,5.486,5.486,0,0,0-1.906,4.455.582.582,0,0,0,0,.07l.333,2.387a2.218,2.218,0,0,0-.337,1.175,1.984,1.984,0,0,0,1.862,2.084l.034,0a5,5,0,0,0,2.334,3.34,5.312,5.312,0,0,0,.592.3l-2,.608A1.55,1.55,0,0,0,51.4,57.993l-.041.138-2.269,1.61a6.024,6.024,0,0,0-2.529,4.941l.028,3.42,1.1-.012-.028-3.416a4.907,4.907,0,0,1,2.065-4.034l1.684-1.191.151,2.277a1.562,1.562,0,0,0,2.1,1.362l2.465-.919v5.9h1.1v-5.9l2.46.919a1.566,1.566,0,0,0,2.106-1.362l.15-2.277,1.676,1.191a4.908,4.908,0,0,1,2.069,4.03l-.033,3.42,1.1.012.032-3.424a6.026,6.026,0,0,0-2.533-4.937M61.916,51.66V49.528h.009l.028,0,.031,0a.24.24,0,0,1,.038.005.185.185,0,0,1,.033.012l.027.011.025.009a.409.409,0,0,1,.07.027l.012.008a.879.879,0,0,1,.264.228,1.219,1.219,0,0,1,.254.755,1,1,0,0,1-.791,1.067m-10.479,0a1,1,0,0,1-.791-1.068,1.21,1.21,0,0,1,.257-.755.777.777,0,0,1,.4-.287.086.086,0,0,0,.02-.007.232.232,0,0,1,.037-.005l.031,0,.028,0,.013,0Zm0-3.55v.4a1.7,1.7,0,0,0-.26.031l-.05.009a1.777,1.777,0,0,0-.244.075l-.237-1.695a4.482,4.482,0,0,1,1.509-3.619,3.556,3.556,0,0,1,1.757-.7.8.8,0,0,0,.633-.294,3.239,3.239,0,0,1,2.616-1.045,4.179,4.179,0,0,1,.6.042c.828.12,1.407.472,1.552.939a.51.51,0,0,0,.41.352c.122.018,2.989.481,2.989,3.227l-.277,2.778a1.653,1.653,0,0,0-.22-.063l-.037-.007-.022,0a1.789,1.789,0,0,0-.235-.027v-.4a.508.508,0,0,0-.426-.5c-.235-.038-.6-.088-1.074-.152-3.624-.492-5.613-.9-5.912-1.2a.482.482,0,0,0-.146-.111l-.024-.016a.516.516,0,0,0-.593.127.331.331,0,0,1-.053.045l-.023.017c-.377.291-.625.508-.805.667L52.849,47a2.549,2.549,0,0,1-1.08.638.508.508,0,0,0-.333.476m2.187,6.439a3.983,3.983,0,0,1-1.162-2.5c0-.106-.011-.216-.011-.327V48.457a3.317,3.317,0,0,0,1.076-.705c.152-.135.342-.3.631-.528.91.463,2.938.806,6.119,1.239l.026,0,.6.082v3.171a1.786,1.786,0,0,1-.017.271l0,.025a5.288,5.288,0,0,1-2.437,3.176,4.66,4.66,0,0,1-.925.37,3.957,3.957,0,0,1-1.069.16h-.023a4.019,4.019,0,0,1-2.806-1.172m-.415,7.535-.089,0a.466.466,0,0,1-.464-.431l-.211-3.209a.459.459,0,0,1,.33-.476l1.455-.439,1.191,3.729Zm3.469-.5-1.614-5.049a4.814,4.814,0,0,0,1.363.2h.028a5.371,5.371,0,0,0,1.508-.244c.09-.028.225-.074.385-.138Zm4.018.073a.466.466,0,0,1-.464.431h-.069l-.085-.024-2.143-.8,1.187-3.729,1.456.439a.458.458,0,0,1,.329.476Z" transform="translate(-27.628 -23.884)" fill="#1544ce"/>
        <rect id="Rectangle_9877" data-name="Rectangle 9877" width="1.098" height="2.196" transform="translate(22.261 42.019)" fill="#1544ce"/>
        <rect id="Rectangle_9878" data-name="Rectangle 9878" width="1.098" height="2.196" transform="translate(34.758 42.019)" fill="#1544ce"/>
      </g>
    </g>
    <g id="Group_12936" data-name="Group 12936" transform="translate(-20258.004 -23943.893) rotate(-90)">
      <path id="Path_22353" data-name="Path 22353" d="M.462,3.891A4.72,4.72,0,0,1,0,2a4.136,4.136,0,0,1,.116-.927A5.412,5.412,0,0,1,.347.285L.462,0h.32A7.383,7.383,0,0,0,.494,1.012a4.752,4.752,0,0,0-.133.983,3.922,3.922,0,0,0,.107.854,5.983,5.983,0,0,0,.213.758l.1.285Zm.863-.556V.258H3.166v.3h-1.5v1.2H2.935v.3H1.668V3.335Zm2.281,0V1.112H3.94V3.335Zm0-2.726V.222H3.94V.609ZM4.914,3.335H4.58V1.112h.329v.156a1.422,1.422,0,0,1,.689-.2.657.657,0,0,1,.6.24,1.7,1.7,0,0,1,.153.854V3.335H6.021V2.17a1.5,1.5,0,0,0-.091-.634.4.4,0,0,0-.389-.171,1.162,1.162,0,0,0-.3.042A1.5,1.5,0,0,0,5,1.49l-.084.04ZM8.106,1.4H7.4V2.464a1.435,1.435,0,0,0,.056.5q.056.12.265.12l.4-.027.022.276a3.042,3.042,0,0,1-.454.049.581.581,0,0,1-.48-.169A1.1,1.1,0,0,1,7.07,2.57V1.4H6.755V1.112H7.07V.431H7.4v.68h.707Zm1.921,1.659.129-.013.009.262A6.383,6.383,0,0,1,9.3,3.38a.782.782,0,0,1-.68-.278,1.493,1.493,0,0,1-.2-.865q0-1.17.929-1.17a.85.85,0,0,1,.671.251,1.17,1.17,0,0,1,.222.789l-.018.253H8.756a.912.912,0,0,0,.133.547.545.545,0,0,0,.465.178Q9.685,3.086,10.027,3.059Zm-.12-.965a.965.965,0,0,0-.131-.578.507.507,0,0,0-.427-.169.547.547,0,0,0-.445.178.9.9,0,0,0-.153.569Zm1.685-1.027a3.842,3.842,0,0,1,.5.053l.107.013-.013.271a5.217,5.217,0,0,0-.525-.04.611.611,0,0,0-.514.18,1.172,1.172,0,0,0-.136.667,1.3,1.3,0,0,0,.127.678.6.6,0,0,0,.527.191l.525-.04.013.276a4.572,4.572,0,0,1-.618.062.842.842,0,0,1-.718-.267,1.553,1.553,0,0,1-.2-.9,1.411,1.411,0,0,1,.213-.889A.879.879,0,0,1,11.593,1.067Zm1.441,2.268H12.7V.142h.334V1.236a1.594,1.594,0,0,1,.685-.169.657.657,0,0,1,.6.24,1.7,1.7,0,0,1,.153.854V3.335h-.334V2.17a1.5,1.5,0,0,0-.091-.634.4.4,0,0,0-.385-.171,1.481,1.481,0,0,0-.543.1l-.084.031Zm3.033.987V1.112H16.4v.16a1.283,1.283,0,0,1,.667-.2.7.7,0,0,1,.614.269,1.572,1.572,0,0,1,.191.887,1.387,1.387,0,0,1-.225.887.92.92,0,0,1-.745.269,2.364,2.364,0,0,1-.5-.049v.992Zm.947-2.957a1.033,1.033,0,0,0-.287.044,1.482,1.482,0,0,0-.242.089l-.084.044v1.5a3.408,3.408,0,0,0,.48.049.576.576,0,0,0,.5-.2,1.184,1.184,0,0,0,.145-.667,1.231,1.231,0,0,0-.131-.658A.434.434,0,0,0,17.013,1.365Zm1.423,1.97V.142h.334V3.335Zm2.57-1.552V2.922q.013.165.258.2l-.013.262a.718.718,0,0,1-.529-.178,1.957,1.957,0,0,1-.8.178.6.6,0,0,1-.467-.173.708.708,0,0,1-.16-.5.625.625,0,0,1,.165-.478.872.872,0,0,1,.516-.189l.7-.067V1.783a.447.447,0,0,0-.1-.325.361.361,0,0,0-.267-.1,6.394,6.394,0,0,0-.738.044l-.138.013-.013-.253a4.481,4.481,0,0,1,.867-.1.746.746,0,0,1,.549.173A.747.747,0,0,1,21.007,1.783Zm-1.37.907q0,.409.338.409a1.8,1.8,0,0,0,.6-.1l.1-.036V2.228l-.658.062a.428.428,0,0,0-.289.116A.409.409,0,0,0,19.637,2.69ZM22.816,1.4h-.707V2.464a1.435,1.435,0,0,0,.056.5q.056.12.265.12l.4-.027.022.276a3.042,3.042,0,0,1-.454.049.581.581,0,0,1-.48-.169,1.1,1.1,0,0,1-.133-.645V1.4h-.316V1.112h.316V.431h.329v.68h.707Zm.836,0V3.335h-.334V1.4h-.28V1.112h.28v-.2a1.1,1.1,0,0,1,.133-.643A.559.559,0,0,1,23.919.1l.449.031,0,.276Q24.115.4,23.953.4A.254.254,0,0,0,23.721.5a.842.842,0,0,0-.069.414v.2H24.3V1.4Zm.907.818a1.411,1.411,0,0,1,.218-.88,1.131,1.131,0,0,1,1.47,0,1.422,1.422,0,0,1,.216.88,1.5,1.5,0,0,1-.2.885,1.15,1.15,0,0,1-1.494,0A1.5,1.5,0,0,1,24.56,2.219Zm.342-.007a1.417,1.417,0,0,0,.118.683A.721.721,0,0,0,26,2.9a1.432,1.432,0,0,0,.116-.683,1.253,1.253,0,0,0-.129-.674.545.545,0,0,0-.478-.185.551.551,0,0,0-.48.185A1.229,1.229,0,0,0,24.9,2.212Zm2.1,1.123V1.112h.329v.3a2.166,2.166,0,0,1,.814-.351V1.4a2.4,2.4,0,0,0-.389.111,2.578,2.578,0,0,0-.309.133l-.111.058V3.335Zm1.872,0h-.334V1.112h.329v.156a1.26,1.26,0,0,1,.649-.2.668.668,0,0,1,.578.227,1.632,1.632,0,0,1,.38-.158,1.477,1.477,0,0,1,.411-.069.66.66,0,0,1,.6.238,1.694,1.694,0,0,1,.153.856V3.335H31.31V2.17a1.536,1.536,0,0,0-.089-.634.385.385,0,0,0-.378-.171,1.152,1.152,0,0,0-.3.042,1.512,1.512,0,0,0-.24.082l-.084.04a2.225,2.225,0,0,1,.058.649V3.335H29.94V2.188a1.636,1.636,0,0,0-.087-.651.385.385,0,0,0-.38-.171,1.065,1.065,0,0,0-.291.042,1.373,1.373,0,0,0-.229.082l-.076.04Zm3.944-1.917a4.239,4.239,0,0,1,.049.658,3.532,3.532,0,0,1-.116.82,4.454,4.454,0,0,1-.231.731l-.116.262h-.32a5.883,5.883,0,0,0,.287-.936,4.384,4.384,0,0,0,.136-.961,4.341,4.341,0,0,0-.1-.878,6.754,6.754,0,0,0-.211-.8L32.088,0h.32A5.69,5.69,0,0,1,32.822,1.419Z" transform="translate(13.883 12.264)" fill="#222"/>
      <path id="Rectangle_9644" data-name="Rectangle 9644" d="M9.813,0h41.11a9.813,9.813,0,0,1,9.813,9.813V11.25a9.813,9.813,0,0,1-9.813,9.813H9.813A9.813,9.813,0,0,1,0,11.25V9.813A9.813,9.813,0,0,1,9.813,0Zm41.11,20.321a9.082,9.082,0,0,0,9.071-9.071V9.813A9.082,9.082,0,0,0,50.923.741H9.813A9.082,9.082,0,0,0,.741,9.813V11.25a9.082,9.082,0,0,0,9.071,9.071Z" transform="translate(0)" fill="#d6d6d6"/>
      <g id="Group_12273" data-name="Group 12273" transform="translate(14.677 4.289)">
        <g id="Group_12271" data-name="Group 12271">
          <g id="Group_12269" data-name="Group 12269" transform="translate(0 1.334)">
            <path id="Path_20427" data-name="Path 20427" d="M4.053.484,3.565,0a2.643,2.643,0,0,0-.782.8A1.305,1.305,0,0,0,2.362.48,1.506,1.506,0,0,0,1.711.341,1.633,1.633,0,0,0,.834.58a1.69,1.69,0,0,0-.611.659A1.985,1.985,0,0,0,0,2.191a1.976,1.976,0,0,0,.222.945A1.776,1.776,0,0,0,.834,3.8a1.611,1.611,0,0,0,.873.246A1.529,1.529,0,0,0,2.366,3.9a1.238,1.238,0,0,0,.417-.318,2.677,2.677,0,0,0,.782.8L4.053,3.9a2.85,2.85,0,0,1,0-3.414M2.521,2.791a.69.69,0,0,1-.056.056.759.759,0,0,1-.52.179.77.77,0,0,1-.695-.4.864.864,0,0,1-.107-.433.864.864,0,0,1,.107-.433.793.793,0,0,1,.286-.3.776.776,0,0,1,.409-.107.8.8,0,0,1,.417.107.453.453,0,0,1,.1.071.7.7,0,0,1,.179.222.922.922,0,0,1,.1.429.845.845,0,0,1-.218.607" fill="#1544ce"/>
            <path id="Path_20428" data-name="Path 20428" d="M1.683,3.632a1.8,1.8,0,0,1-.869-.206,1.485,1.485,0,0,1-.6-.56A1.548,1.548,0,0,1,0,2.052V0H1.131V2.04a.72.72,0,0,0,.067.318.458.458,0,0,0,.191.206.585.585,0,0,0,.294.071.5.5,0,0,0,.393-.159.636.636,0,0,0,.143-.437V0H3.35V2.052a1.581,1.581,0,0,1-.21.822,1.458,1.458,0,0,1-.584.556,1.808,1.808,0,0,1-.873.2" transform="translate(8.718 0.413)" fill="#1544ce"/>
            <path id="Path_20429" data-name="Path 20429" d="M2.688.071v.29A1.35,1.35,0,0,0,2.362.139,1.506,1.506,0,0,0,1.711,0,1.642,1.642,0,0,0,.218.9,2.029,2.029,0,0,0,0,1.85a2.022,2.022,0,0,0,.218.945,1.734,1.734,0,0,0,.607.659,1.622,1.622,0,0,0,.885.246,1.527,1.527,0,0,0,.647-.139,1.3,1.3,0,0,0,.329-.222V5.125H3.8V.075H2.688ZM1.937,2.68a.81.81,0,0,1-.413-.107.7.7,0,0,1-.282-.3.9.9,0,0,1-.1-.429.917.917,0,0,1,.1-.433.754.754,0,0,1,.282-.3.79.79,0,0,1,.413-.107.79.79,0,0,1,.413.107.734.734,0,0,1,.278.294.878.878,0,0,1,.1.429.848.848,0,0,1-.222.607.769.769,0,0,1-.576.234" transform="translate(4.375 0.341)" fill="#1544ce"/>
            <path id="Path_20430" data-name="Path 20430" d="M2.7.365A1.235,1.235,0,0,0,2.362.139,1.506,1.506,0,0,0,1.711,0,1.634,1.634,0,0,0,.834.238,1.69,1.69,0,0,0,.222.9,1.985,1.985,0,0,0,0,1.85a1.977,1.977,0,0,0,.222.945,1.776,1.776,0,0,0,.611.659,1.611,1.611,0,0,0,.873.246,1.529,1.529,0,0,0,.659-.139,1.275,1.275,0,0,0,.326-.222v.29H3.8V.079H2.691V.373ZM1.945,2.68a.77.77,0,0,1-.695-.4.859.859,0,0,1-.107-.429.874.874,0,0,1,.107-.433.793.793,0,0,1,.286-.3.776.776,0,0,1,.409-.107.8.8,0,0,1,.417.107.685.685,0,0,1,.278.294.922.922,0,0,1,.1.429.845.845,0,0,1-.218.607.751.751,0,0,1-.576.234" transform="translate(12.612 0.349)" fill="#1544ce"/>
          </g>
          <g id="Group_12270" data-name="Group 12270" transform="translate(16.947)">
            <path id="Path_20431" data-name="Path 20431" d="M2.354,2.62a.945.945,0,0,1-.389.075.818.818,0,0,1-.425-.111.794.794,0,0,1-.3-.3.879.879,0,0,1-.107-.437.879.879,0,0,1,.107-.437.773.773,0,0,1,.294-.294.849.849,0,0,1,.429-.107,1.015,1.015,0,0,1,.377.067.736.736,0,0,1,.29.206L3.346.572A1.74,1.74,0,0,0,2.727.143,1.975,1.975,0,0,0,1.965,0a2.05,2.05,0,0,0-1,.242A1.831,1.831,0,0,0,.258.905,1.769,1.769,0,0,0,0,1.858,1.785,1.785,0,0,0,.957,3.47a2.074,2.074,0,0,0,.992.242,1.99,1.99,0,0,0,.782-.151,1.84,1.84,0,0,0,.627-.441l-.711-.715a.894.894,0,0,1-.3.214Z" transform="translate(0 1.675)" fill="#1544ce"/>
            <path id="Path_20432" data-name="Path 20432" d="M2.481.075A1.208,1.208,0,0,0,2.032,0a1.2,1.2,0,0,0-.913.345V.075H0V3.628H1.119V1.679a.731.731,0,0,1,.163-.516A.583.583,0,0,1,1.723.992a.719.719,0,0,1,.25.044.5.5,0,0,1,.183.123L2.819.318A.918.918,0,0,0,2.477.079Z" transform="translate(3.855 1.683)" fill="#1544ce"/>
            <path id="Path_20433" data-name="Path 20433" d="M2.834.226A1.851,1.851,0,0,0,1.905,0,1.964,1.964,0,0,0,.933.242,1.8,1.8,0,0,0,.25.905,1.836,1.836,0,0,0,0,1.858a1.815,1.815,0,0,0,.254.957,1.778,1.778,0,0,0,.707.663,2.159,2.159,0,0,0,1.028.238,2.1,2.1,0,0,0,.818-.155A1.629,1.629,0,0,0,3.442,3.1l-.615-.615a1,1,0,0,1-.373.274,1.214,1.214,0,0,1-.476.091.972.972,0,0,1-.492-.119.81.81,0,0,1-.322-.341A1.463,1.463,0,0,1,1.1,2.231l2.545-.008a2.4,2.4,0,0,0,.04-.246,1.837,1.837,0,0,0,.012-.2,1.813,1.813,0,0,0-.23-.921A1.679,1.679,0,0,0,2.834.226ZM1.457.977A.86.86,0,0,1,1.913.857a.78.78,0,0,1,.421.107.651.651,0,0,1,.258.306,1.141,1.141,0,0,1,.06.187H1.1a.847.847,0,0,1,.056-.139A.833.833,0,0,1,1.457.977Z" transform="translate(6.641 1.675)" fill="#1544ce"/>
            <path id="Path_20434" data-name="Path 20434" d="M2.66,0V1.981a1.485,1.485,0,0,0-.266-.163,1.559,1.559,0,0,0-.663-.139,1.637,1.637,0,0,0-.893.242,1.7,1.7,0,0,0-.615.659A2,2,0,0,0,0,3.529a2,2,0,0,0,.222.949,1.668,1.668,0,0,0,1.508.9,1.466,1.466,0,0,0,.663-.151,1.414,1.414,0,0,0,.286-.187V5.3h1.1V0H2.656ZM2.346,4.263a.775.775,0,0,1-.417.107.783.783,0,0,1-.695-.409.905.905,0,0,1-.1-.433A.864.864,0,0,1,1.239,3.1a.784.784,0,0,1,.7-.409A.757.757,0,0,1,2.35,2.8a.745.745,0,0,1,.278.3.893.893,0,0,1,.1.433.91.91,0,0,1-.1.437.744.744,0,0,1-.278.3Z" transform="translate(10.659)" fill="#1544ce"/>
          </g>
        </g>
        <g id="Group_12272" data-name="Group 12272" transform="translate(32.217 0)">
          <path id="Path_20435" data-name="Path 20435" d="M.5.925H.715L.4.536A.3.3,0,0,0,.512.508a.31.31,0,0,0,.107-.1A.273.273,0,0,0,.655.27.258.258,0,0,0,.619.131a.266.266,0,0,0-.1-.1A.319.319,0,0,0,.361,0H0V.925H.179V.54H.21L.5.925ZM.171.147H.337a.142.142,0,0,1,.1.036A.126.126,0,0,1,.476.274.126.126,0,0,1,.441.365.14.14,0,0,1,.337.4H.171Z" transform="translate(0.664 0.48)" fill="#1544ce"/>
          <path id="Path_20436" data-name="Path 20436" d="M1.669,1.667A1,1,0,0,1,.259.258,1,1,0,0,1,1.669,1.667ZM.962.174A.786.786,0,1,0,1.748.96.788.788,0,0,0,.962.174Z" transform="translate(0 0)" fill="#1544ce"/>
        </g>
      </g>
    </g>
  </g>
</svg>
